JosefinSlab-Regular_ik.ufo
<glyph name="dollar" format="1">
  <advance width="550"/>
  <unicode hex="0024"/>
  <outline>
    <contour>
      <point x="410" y="562" type="line"/>
      <point x="410" y="636" type="line"/>
      <point x="381" y="644"/>
      <point x="321" y="655"/>
      <point x="292" y="656" type="qcurve"/>
      <point x="292" y="414" type="line"/>
      <point x="330" y="400"/>
      <point x="406" y="367"/>
      <point x="467" y="318"/>
      <point x="505" y="247"/>
      <point x="505" y="195" type="qcurve"/>
      <point x="505" y="109"/>
      <point x="395" y="2"/>
      <point x="292" y="-6" type="qcurve"/>
      <point x="292" y="-68" type="line"/>
      <point x="250" y="-68" type="line"/>
      <point x="250" y="-8" type="line"/>
      <point x="210" y="-7"/>
      <point x="145" y="8"/>
      <point x="95" y="29"/>
      <point x="59" y="52"/>
      <point x="47" y="61" type="qcurve"/>
      <point x="46" y="61" type="line"/>
      <point x="46" y="173" type="line"/>
      <point x="110" y="173" type="line"/>
      <point x="110" y="100" type="line"/>
      <point x="141" y="83"/>
      <point x="213" y="60"/>
      <point x="250" y="59" type="qcurve"/>
      <point x="250" y="361" type="line"/>
      <point x="215" y="374"/>
      <point x="150" y="403"/>
      <point x="99" y="443"/>
      <point x="68" y="497"/>
      <point x="68" y="535" type="qcurve"/>
      <point x="68" y="568"/>
      <point x="93" y="629"/>
      <point x="140" y="678"/>
      <point x="207" y="711"/>
      <point x="250" y="716" type="qcurve"/>
      <point x="250" y="780" type="line"/>
      <point x="292" y="780" type="line"/>
      <point x="292" y="718" type="line"/>
      <point x="319" y="717"/>
      <point x="376" y="708"/>
      <point x="425" y="695"/>
      <point x="464" y="682"/>
      <point x="475" y="677" type="qcurve"/>
      <point x="475" y="562" type="line"/>
    </contour>
    <contour>
      <point x="438" y="198" type="qcurve"/>
      <point x="438" y="228"/>
      <point x="414" y="273"/>
      <point x="374" y="308"/>
      <point x="321" y="334"/>
      <point x="292" y="346" type="qcurve"/>
      <point x="292" y="61" type="line"/>
      <point x="318" y="65"/>
      <point x="370" y="85"/>
      <point x="412" y="118"/>
      <point x="438" y="166"/>
    </contour>
    <contour>
      <point x="136" y="541" type="qcurve"/>
      <point x="136" y="519"/>
      <point x="154" y="485"/>
      <point x="184" y="459"/>
      <point x="226" y="438"/>
      <point x="250" y="429" type="qcurve"/>
      <point x="250" y="652" type="line"/>
      <point x="196" y="643"/>
      <point x="136" y="581"/>
    </contour>
  </outline>
</glyph>
<glyph name="comma" format="1">
  <advance width="225"/>
  <unicode hex="002C"/>
  <outline>
    <contour>
      <point x="150" y="87" type="line"/>
      <point x="139" y="61"/>
      <point x="125" y="27"/>
      <point x="111" y="-3"/>
      <point x="97" y="-37"/>
      <point x="86" y="-63" type="qcurve"/>
      <point x="37" y="-63" type="line"/>
      <point x="47" y="-37"/>
      <point x="59" y="-3"/>
      <point x="70" y="27"/>
      <point x="82" y="61"/>
      <point x="92" y="87" type="qcurve"/>
    </contour>
  </outline>
</glyph>
<glyph name="three" format="1">
  <advance width="476"/>
  <unicode hex="0033"/>
  <outline>
    <contour>
      <point x="73" y="541" type="line"/>
      <point x="73" y="655" type="line"/>
      <point x="409" y="655" type="line"/>
      <point x="367" y="594"/>
      <point x="282" y="472"/>
      <point x="240" y="410" type="qcurve"/>
      <point x="277" y="403"/>
      <point x="342" y="368"/>
      <point x="390" y="314"/>
      <point x="417" y="245"/>
      <point x="417" y="205" type="qcurve"/>
      <point x="417" y="161"/>
      <point x="383" y="84"/>
      <point x="324" y="26"/>
      <point x="246" y="-8"/>
      <point x="202" y="-8" type="qcurve"/>
      <point x="155" y="-8"/>
      <point x="74" y="30"/>
      <point x="45" y="62" type="qcurve"/>
      <point x="88" y="103" type="line"/>
      <point x="108" y="78"/>
      <point x="166" y="49"/>
      <point x="201" y="49" type="qcurve"/>
      <point x="233" y="49"/>
      <point x="291" y="74"/>
      <point x="334" y="117"/>
      <point x="359" y="173"/>
      <point x="359" y="205" type="qcurve"/>
      <point x="359" y="238"/>
      <point x="334" y="295"/>
      <point x="291" y="337"/>
      <point x="233" y="361"/>
      <point x="201" y="361" type="qcurve"/>
      <point x="166" y="361"/>
      <point x="137" y="341" type="qcurve"/>
      <point x="179" y="406"/>
      <point x="270" y="533"/>
      <point x="312" y="598" type="qcurve"/>
      <point x="129" y="598" type="line"/>
      <point x="129" y="541" type="line"/>
    </contour>
  </outline>
</glyph>
<glyph name="seven" format="1">
  <advance width="465"/>
  <unicode hex="0037"/>
  <outline>
    <contour>
      <point x="39" y="541" type="line"/>
      <point x="39" y="655" type="line"/>
      <point x="451" y="655" type="line"/>
      <point x="380" y="486"/>
      <point x="245" y="165"/>
      <point x="177" y="0" type="qcurve"/>
      <point x="109" y="0" type="line"/>
      <point x="169" y="143"/>
      <point x="296" y="446"/>
      <point x="359" y="598" type="qcurve"/>
      <point x="95" y="598" type="line"/>
      <point x="95" y="541" type="line"/>
    </contour>
  </outline>
</glyph>
<glyph name="B" format="1">
  <advance width="616"/>
  <unicode hex="0042"/>
  <outline>
    <contour>
      <point x="57" y="0" type="line"/>
      <point x="57" y="60" type="line"/>
      <point x="135" y="60" type="line"/>
      <point x="135" y="654" type="line"/>
      <point x="57" y="654" type="line"/>
      <point x="57" y="714" type="line"/>
      <point x="302" y="714" type="line"/>
      <point x="352" y="714"/>
      <point x="433" y="694"/>
      <point x="491" y="650"/>
      <point x="522" y="580"/>
      <point x="522" y="530" type="qcurve"/>
      <point x="522" y="501"/>
      <point x="510" y="448"/>
      <point x="484" y="403"/>
      <point x="441" y="370"/>
      <point x="410" y="361" type="qcurve"/>
      <point x="438" y="355"/>
      <point x="491" y="329"/>
      <point x="533" y="287"/>
      <point x="558" y="228"/>
      <point x="558" y="189" type="qcurve"/>
      <point x="558" y="141"/>
      <point x="520" y="69"/>
      <point x="457" y="23"/>
      <point x="374" y="0"/>
      <point x="330" y="0" type="qcurve"/>
    </contour>
    <contour>
      <point x="203" y="330" type="line"/>
      <point x="203" y="62" type="line"/>
      <point x="325" y="62" type="line"/>
      <point x="359" y="62"/>
      <point x="419" y="79"/>
      <point x="464" y="112"/>
      <point x="490" y="162"/>
      <point x="490" y="195" type="qcurve"/>
      <point x="490" y="231"/>
      <point x="460" y="283"/>
      <point x="409" y="315"/>
      <point x="344" y="330"/>
      <point x="310" y="330" type="qcurve"/>
    </contour>
    <contour>
      <point x="203" y="652" type="line"/>
      <point x="203" y="389" type="line"/>
      <point x="322" y="389" type="line"/>
      <point x="388" y="389"/>
      <point x="454" y="466"/>
      <point x="454" y="525" type="qcurve"/>
      <point x="454" y="592"/>
      <point x="374" y="652"/>
      <point x="310" y="652" type="qcurve"/>
    </contour>
  </outline>
</glyph>
<glyph name="D" format="1">
  <advance width="745"/>
  <unicode hex="0044"/>
  <outline>
    <contour>
      <point x="300" y="714" type="line"/>
      <point x="408" y="714"/>
      <point x="558" y="648"/>
      <point x="652" y="544"/>
      <point x="694" y="415"/>
      <point x="694" y="352" type="qcurve"/>
      <point x="694" y="271"/>
      <point x="637" y="141"/>
      <point x="539" y="49"/>
      <point x="408" y="0"/>
      <point x="335" y="0" type="qcurve"/>
      <point x="57" y="0" type="line"/>
      <point x="57" y="60" type="line"/>
      <point x="135" y="60" type="line"/>
      <point x="135" y="654" type="line"/>
      <point x="57" y="654" type="line"/>
      <point x="57" y="714" type="line"/>
    </contour>
    <contour>
      <point x="329" y="65" type="line"/>
      <point x="391" y="65"/>
      <point x="499" y="105"/>
      <point x="580" y="180"/>
      <point x="626" y="288"/>
      <point x="626" y="356" type="qcurve"/>
      <point x="626" y="418"/>
      <point x="583" y="525"/>
      <point x="503" y="603"/>
      <point x="391" y="648"/>
      <point x="321" y="648" type="qcurve"/>
      <point x="203" y="648" type="line"/>
      <point x="203" y="65" type="line"/>
    </contour>
  </outline>
</glyph>
<glyph name="F" format="1">
  <advance width="546"/>
  <unicode hex="0046"/>
  <outline>
    <contour>
      <point x="443" y="580" type="line"/>
      <point x="443" y="652" type="line"/>
      <point x="203" y="652" type="line"/>
      <point x="203" y="391" type="line"/>
      <point x="468" y="391" type="line"/>
      <point x="468" y="327" type="line"/>
      <point x="203" y="327" type="line"/>
      <point x="203" y="60" type="line"/>
      <point x="285" y="60" type="line"/>
      <point x="285" y="0" type="line"/>
      <point x="57" y="0" type="line"/>
      <point x="57" y="60" type="line"/>
      <point x="135" y="60" type="line"/>
      <point x="135" y="654" type="line"/>
      <point x="57" y="654" type="line"/>
      <point x="57" y="714" type="line"/>
      <point x="508" y="714" type="line"/>
      <point x="508" y="580" type="line"/>
    </contour>
  </outline>
</glyph>
<glyph name="H" format="1">
  <advance width="813"/>
  <unicode hex="0048"/>
  <outline>
    <contour>
      <point x="285" y="714" type="line"/>
      <point x="285" y="654" type="line"/>
      <point x="204" y="654" type="line"/>
      <point x="204" y="392" type="line"/>
      <point x="610" y="392" type="line"/>
      <point x="610" y="654" type="line"/>
      <point x="528" y="654" type="line"/>
      <point x="528" y="714" type="line"/>
      <point x="756" y="714" type="line"/>
      <point x="756" y="654" type="line"/>
      <point x="678" y="654" type="line"/>
      <point x="678" y="60" type="line"/>
      <point x="756" y="60" type="line"/>
      <point x="756" y="0" type="line"/>
      <point x="528" y="0" type="line"/>
      <point x="528" y="60" type="line"/>
      <point x="610" y="60" type="line"/>
      <point x="610" y="327" type="line"/>
      <point x="204" y="327" type="line"/>
      <point x="204" y="60" type="line"/>
      <point x="285" y="60" type="line"/>
      <point x="285" y="0" type="line"/>
      <point x="57" y="0" type="line"/>
      <point x="57" y="60" type="line"/>
      <point x="135" y="60" type="line"/>
      <point x="135" y="654" type="line"/>
      <point x="57" y="654" type="line"/>
      <point x="57" y="714" type="line"/>
    </contour>
  </outline>
</glyph>
<glyph name="J" format="1">
  <advance width="327"/>
  <unicode hex="004A"/>
  <outline>
    <contour>
      <point x="-10" y="-146" type="qcurve"/>
      <point x="-10" y="-82" type="line"/>
      <point x="26" y="-80"/>
      <point x="86" y="-53"/>
      <point x="129" y="-3"/>
      <point x="154" y="71"/>
      <point x="154" y="119" type="qcurve"/>
      <point x="154" y="654" type="line"/>
      <point x="50" y="654" type="line"/>
      <point x="50" y="714" type="line"/>
      <point x="223" y="714" type="line"/>
      <point x="223" y="116" type="line"/>
      <point x="223" y="54"/>
      <point x="187" y="-43"/>
      <point x="124" y="-109"/>
      <point x="39" y="-145"/>
    </contour>
  </outline>
</glyph>
<glyph name="K" format="1">
  <advance width="692"/>
  <unicode hex="004B"/>
  <outline>
    <contour>
      <point x="284" y="60" type="line"/>
      <point x="284" y="0" type="line"/>
      <point x="56" y="0" type="line"/>
      <point x="56" y="60" type="line"/>
      <point x="135" y="60" type="line"/>
      <point x="135" y="654" type="line"/>
      <point x="56" y="654" type="line"/>
      <point x="56" y="714" type="line"/>
      <point x="284" y="714" type="line"/>
      <point x="284" y="654" type="line"/>
      <point x="209" y="654" type="line"/>
      <point x="209" y="406" type="line"/>
      <point x="209" y="398"/>
      <point x="208" y="382"/>
      <point x="207" y="373" type="qcurve"/>
      <point x="212" y="380"/>
      <point x="224" y="393"/>
      <point x="226" y="397" type="qcurve"/>
      <point x="247" y="417"/>
      <point x="307" y="479"/>
      <point x="373" y="550"/>
      <point x="440" y="623"/>
      <point x="470" y="654" type="qcurve"/>
      <point x="434" y="654" type="line"/>
      <point x="434" y="714" type="line"/>
      <point x="651" y="714" type="line"/>
      <point x="651" y="654" type="line"/>
      <point x="556" y="654" type="line"/>
      <point x="528" y="624"/>
      <point x="463" y="551"/>
      <point x="401" y="482"/>
      <point x="347" y="425"/>
      <point x="331" y="409" type="qcurve"/>
      <point x="352" y="383"/>
      <point x="418" y="297"/>
      <point x="494" y="200"/>
      <point x="572" y="100"/>
      <point x="604" y="60" type="qcurve"/>
      <point x="694" y="60" type="line"/>
      <point x="694" y="0" type="line"/>
      <point x="462" y="0" type="line"/>
      <point x="462" y="60" type="line"/>
      <point x="518" y="60" type="line"/>
      <point x="490" y="96"/>
      <point x="424" y="180"/>
      <point x="359" y="263"/>
      <point x="301" y="337"/>
      <point x="282" y="362" type="qcurve"/>
      <point x="266" y="348"/>
      <point x="225" y="308"/>
      <point x="209" y="293" type="qcurve"/>
      <point x="209" y="60" type="line"/>
    </contour>
  </outline>
</glyph>
<glyph name="L" format="1">
  <advance width="610"/>
  <unicode hex="004C"/>
  <outline>
    <contour>
      <point x="285" y="714" type="line"/>
      <point x="285" y="654" type="line"/>
      <point x="203" y="654" type="line"/>
      <point x="203" y="65" type="line"/>
      <point x="524" y="65" type="line"/>
      <point x="524" y="140" type="line"/>
      <point x="588" y="140" type="line"/>
      <point x="588" y="33" type="line"/>
      <point x="582" y="33" type="line"/>
      <point x="582" y="0" type="line"/>
      <point x="57" y="0" type="line"/>
      <point x="57" y="60" type="line"/>
      <point x="135" y="60" type="line"/>
      <point x="135" y="654" type="line"/>
      <point x="57" y="654" type="line"/>
      <point x="57" y="714" type="line"/>
    </contour>
  </outline>
</glyph>
<glyph name="M" format="1">
  <advance width="965"/>
  <unicode hex="004D"/>
  <outline>
    <contour>
      <point x="911" y="714" type="line"/>
      <point x="911" y="654" type="line"/>
      <point x="830" y="654" type="line"/>
      <point x="830" y="60" type="line"/>
      <point x="911" y="60" type="line"/>
      <point x="911" y="0" type="line"/>
      <point x="678" y="0" type="line"/>
      <point x="678" y="60" type="line"/>
      <point x="757" y="60" type="line"/>
      <point x="757" y="509" type="line"/>
      <point x="757" y="518"/>
      <point x="759" y="538"/>
      <point x="759" y="545" type="qcurve"/>
      <point x="742" y="521"/>
      <point x="695" y="454"/>
      <point x="643" y="378"/>
      <point x="589" y="299"/>
      <point x="539" y="225"/>
      <point x="496" y="161"/>
      <point x="482" y="140" type="qcurve"/>
      <point x="468" y="158"/>
      <point x="420" y="225"/>
      <point x="363" y="308"/>
      <point x="301" y="397"/>
      <point x="248" y="475"/>
      <point x="208" y="534"/>
      <point x="201" y="545" type="qcurve"/>
      <point x="201" y="538"/>
      <point x="204" y="518"/>
      <point x="204" y="509" type="qcurve"/>
      <point x="204" y="60" type="line"/>
      <point x="284" y="60" type="line"/>
      <point x="284" y="0" type="line"/>
      <point x="56" y="0" type="line"/>
      <point x="56" y="60" type="line"/>
      <point x="135" y="60" type="line"/>
      <point x="135" y="654" type="line"/>
      <point x="53" y="654" type="line"/>
      <point x="53" y="714" type="line"/>
      <point x="157" y="714" type="line"/>
      <point x="176" y="686"/>
      <point x="229" y="609"/>
      <point x="290" y="523"/>
      <point x="355" y="433"/>
      <point x="414" y="349"/>
      <point x="465" y="278"/>
      <point x="482" y="254" type="qcurve"/>
      <point x="491" y="267"/>
      <point x="534" y="330"/>
      <point x="593" y="414"/>
      <point x="661" y="510"/>
      <point x="728" y="604"/>
      <point x="787" y="686"/>
      <point x="807" y="714" type="qcurve"/>
    </contour>
  </outline>
</glyph>
<glyph name="P" format="1">
  <advance width="582"/>
  <unicode hex="0050"/>
  <outline>
    <contour>
      <point x="283" y="60" type="line"/>
      <point x="283" y="0" type="line"/>
      <point x="55" y="0" type="line"/>
      <point x="55" y="60" type="line"/>
      <point x="135" y="60" type="line"/>
      <point x="135" y="654" type="line"/>
      <point x="55" y="654" type="line"/>
      <point x="55" y="714" type="line"/>
      <point x="308" y="714" type="line"/>
      <point x="353" y="714"/>
      <point x="437" y="689"/>
      <point x="502" y="637"/>
      <point x="542" y="559"/>
      <point x="542" y="505" type="qcurve"/>
      <point x="542" y="464"/>
      <point x="516" y="385"/>
      <point x="461" y="324"/>
      <point x="373" y="286"/>
      <point x="310" y="286" type="qcurve"/>
      <point x="204" y="286" type="line"/>
      <point x="204" y="60" type="line"/>
    </contour>
    <contour>
      <point x="204" y="351" type="line"/>
      <point x="310" y="351" type="line"/>
      <point x="358" y="351"/>
      <point x="421" y="382"/>
      <point x="458" y="429"/>
      <point x="473" y="482"/>
      <point x="473" y="504" type="qcurve"/>
      <point x="473" y="531"/>
      <point x="452" y="584"/>
      <point x="412" y="625"/>
      <point x="351" y="650"/>
      <point x="311" y="650" type="qcurve"/>
      <point x="204" y="650" type="line"/>
    </contour>
  </outline>
</glyph>
<glyph name="R" format="1">
  <advance width="656"/>
  <unicode hex="0052"/>
  <outline>
    <contour>
      <point x="659" y="60" type="line"/>
      <point x="659" y="0" type="line"/>
      <point x="532" y="0" type="line"/>
      <point x="524" y="12"/>
      <point x="498" y="54"/>
      <point x="466" y="106"/>
      <point x="430" y="164"/>
      <point x="396" y="220"/>
      <point x="364" y="270"/>
      <point x="353" y="288" type="qcurve"/>
      <point x="343" y="286"/>
      <point x="321" y="286"/>
      <point x="310" y="286" type="qcurve"/>
      <point x="204" y="286" type="line"/>
      <point x="204" y="60" type="line"/>
      <point x="283" y="60" type="line"/>
      <point x="283" y="0" type="line"/>
      <point x="55" y="0" type="line"/>
      <point x="55" y="60" type="line"/>
      <point x="135" y="60" type="line"/>
      <point x="135" y="654" type="line"/>
      <point x="55" y="654" type="line"/>
      <point x="55" y="714" type="line"/>
      <point x="308" y="714" type="line"/>
      <point x="353" y="714"/>
      <point x="437" y="689"/>
      <point x="502" y="637"/>
      <point x="542" y="559"/>
      <point x="542" y="505" type="qcurve"/>
      <point x="542" y="445"/>
      <point x="487" y="337"/>
      <point x="425" y="308" type="qcurve"/>
      <point x="435" y="291"/>
      <point x="472" y="232"/>
      <point x="514" y="162"/>
      <point x="558" y="90"/>
      <point x="576" y="60" type="qcurve"/>
    </contour>
    <contour>
      <point x="204" y="351" type="line"/>
      <point x="310" y="351" type="line"/>
      <point x="358" y="351"/>
      <point x="421" y="383"/>
      <point x="458" y="430"/>
      <point x="473" y="483"/>
      <point x="473" y="505" type="qcurve"/>
      <point x="473" y="532"/>
      <point x="452" y="584"/>
      <point x="412" y="625"/>
      <point x="351" y="650"/>
      <point x="311" y="650" type="qcurve"/>
      <point x="204" y="650" type="line"/>
    </contour>
  </outline>
</glyph>
<glyph name="S" format="1">
  <advance width="561"/>
  <unicode hex="0053"/>
  <outline>
    <contour>
      <point x="52" y="61" type="line"/>
      <point x="52" y="173" type="line"/>
      <point x="116" y="173" type="line"/>
      <point x="116" y="100" type="line"/>
      <point x="148" y="82"/>
      <point x="225" y="59"/>
      <point x="263" y="59" type="qcurve"/>
      <point x="291" y="59"/>
      <point x="355" y="74"/>
      <point x="409" y="108"/>
      <point x="444" y="160"/>
      <point x="444" y="198" type="qcurve"/>
      <point x="444" y="245"/>
      <point x="389" y="304"/>
      <point x="307" y="344"/>
      <point x="211" y="377"/>
      <point x="129" y="420"/>
      <point x="74" y="483"/>
      <point x="74" y="535" type="qcurve"/>
      <point x="74" y="571"/>
      <point x="103" y="638"/>
      <point x="159" y="688"/>
      <point x="239" y="718"/>
      <point x="289" y="718" type="qcurve"/>
      <point x="317" y="718"/>
      <point x="376" y="709"/>
      <point x="428" y="696"/>
      <point x="470" y="682"/>
      <point x="481" y="677" type="qcurve"/>
      <point x="481" y="562" type="line"/>
      <point x="416" y="562" type="line"/>
      <point x="416" y="636" type="line"/>
      <point x="387" y="644"/>
      <point x="325" y="656"/>
      <point x="296" y="656" type="qcurve"/>
      <point x="260" y="656"/>
      <point x="203" y="638"/>
      <point x="163" y="606"/>
      <point x="142" y="565"/>
      <point x="142" y="541" type="qcurve"/>
      <point x="142" y="501"/>
      <point x="197" y="455"/>
      <point x="279" y="420"/>
      <point x="374" y="387"/>
      <point x="456" y="336"/>
      <point x="511" y="258"/>
      <point x="511" y="195" type="qcurve"/>
      <point x="511" y="102"/>
      <point x="384" y="-8"/>
      <point x="265" y="-8" type="qcurve"/>
      <point x="223" y="-8"/>
      <point x="155" y="7"/>
      <point x="103" y="28"/>
      <point x="65" y="52"/>
      <point x="53" y="61" type="qcurve"/>
    </contour>
  </outline>
</glyph>
<glyph name="T" format="1">
  <advance width="572"/>
  <unicode hex="0054"/>
  <outline>
    <contour>
      <point x="463" y="562" type="line"/>
      <point x="463" y="649" type="line"/>
      <point x="320" y="649" type="line"/>
      <point x="320" y="0" type="line"/>
      <point x="251" y="0" type="line"/>
      <point x="251" y="649" type="line"/>
      <point x="108" y="649" type="line"/>
      <point x="108" y="562" type="line"/>
      <point x="43" y="562" type="line"/>
      <point x="43" y="714" type="line"/>
      <point x="528" y="714" type="line"/>
      <point x="528" y="562" type="line"/>
    </contour>
  </outline>
</glyph>
<glyph name="W" format="1">
  <advance width="1017"/>
  <unicode hex="0057"/>
  <outline>
    <contour>
      <point x="230" y="714" type="line"/>
      <point x="230" y="654" type="line"/>
      <point x="157" y="654" type="line"/>
      <point x="185" y="582"/>
      <point x="246" y="422"/>
      <point x="299" y="281"/>
      <point x="337" y="175"/>
      <point x="342" y="156" type="qcurve"/>
      <point x="344" y="152"/>
      <point x="349" y="129"/>
      <point x="351" y="126" type="qcurve"/>
      <point x="351" y="129"/>
      <point x="359" y="152"/>
      <point x="360" y="155" type="qcurve"/>
      <point x="361" y="158"/>
      <point x="372" y="188"/>
      <point x="388" y="233"/>
      <point x="409" y="289"/>
      <point x="420" y="318" type="qcurve"/>
      <point x="446" y="386"/>
      <point x="477" y="470" type="qcurve"/>
      <point x="455" y="532"/>
      <point x="437" y="583" type="qcurve"/>
      <point x="429" y="605"/>
      <point x="414" y="647"/>
      <point x="401" y="683"/>
      <point x="392" y="708"/>
      <point x="391" y="712" type="qcurve"/>
      <point x="458" y="712" type="line"/>
      <point x="505" y="591"/>
      <point x="545" y="483" type="qcurve"/>
      <point x="562" y="437"/>
      <point x="598" y="341"/>
      <point x="629" y="254"/>
      <point x="656" y="180"/>
      <point x="664" y="156" type="qcurve"/>
      <point x="667" y="148"/>
      <point x="671" y="134"/>
      <point x="673" y="126" type="qcurve"/>
      <point x="681" y="156" type="line"/>
      <point x="684" y="171"/>
      <point x="708" y="238"/>
      <point x="742" y="330"/>
      <point x="785" y="440"/>
      <point x="829" y="554"/>
      <point x="874" y="666"/>
      <point x="893" y="714" type="qcurve"/>
      <point x="1008" y="714" type="line"/>
      <point x="1008" y="654" type="line"/>
      <point x="939" y="654" type="line"/>
      <point x="920" y="606"/>
      <point x="870" y="480"/>
      <point x="817" y="343"/>
      <point x="763" y="204"/>
      <point x="717" y="83"/>
      <point x="681" y="-10"/>
      <point x="673" y="-32" type="qcurve"/>
      <point x="517" y="371" type="line"/>
      <point x="515" y="376"/>
      <point x="511" y="387"/>
      <point x="510" y="392" type="qcurve"/>
      <point x="509" y="390"/>
      <point x="507" y="384"/>
      <point x="506" y="380" type="qcurve"/>
      <point x="504" y="376"/>
      <point x="503" y="371" type="qcurve"/>
      <point x="466" y="279"/>
      <point x="434" y="199" type="qcurve"/>
      <point x="420" y="165"/>
      <point x="393" y="95"/>
      <point x="370" y="33"/>
      <point x="351" y="-18"/>
      <point x="347" y="-33" type="qcurve"/>
      <point x="325" y="18"/>
      <point x="263" y="177"/>
      <point x="192" y="364"/>
      <point x="116" y="563"/>
      <point x="80" y="654" type="qcurve"/>
      <point x="2" y="654" type="line"/>
      <point x="2" y="714" type="line"/>
    </contour>
  </outline>
</glyph>
<glyph name="k" format="1">
  <advance width="470"/>
  <unicode hex="006B"/>
  <outline>
    <contour>
      <point x="147" y="142" type="line"/>
      <point x="147" y="48" type="line"/>
      <point x="220" y="48" type="line"/>
      <point x="220" y="0" type="line"/>
      <point x="24" y="0" type="line"/>
      <point x="24" y="48" type="line"/>
      <point x="92" y="48" type="line"/>
      <point x="92" y="717" type="line"/>
      <point x="24" y="717" type="line"/>
      <point x="24" y="766" type="line"/>
      <point x="147" y="766" type="line"/>
      <point x="147" y="208" type="line"/>
      <point x="321" y="370" type="line"/>
      <point x="270" y="370" type="line"/>
      <point x="270" y="406" type="line"/>
      <point x="435" y="406" type="line"/>
      <point x="435" y="370" type="line"/>
      <point x="389" y="370" type="line"/>
      <point x="251" y="239" type="line"/>
      <point x="389" y="48" type="line"/>
      <point x="456" y="48" type="line"/>
      <point x="456" y="0" type="line"/>
      <point x="361" y="0" type="line"/>
      <point x="212" y="202" type="line"/>
    </contour>
  </outline>
</glyph>
<glyph name="m" format="1">
  <advance width="826"/>
  <unicode hex="006D"/>
  <outline>
    <contour>
      <point x="447" y="215" type="qcurve"/>
      <point x="447" y="48" type="line"/>
      <point x="515" y="48" type="line"/>
      <point x="515" y="0" type="line"/>
      <point x="321" y="0" type="line"/>
      <point x="321" y="48" type="line"/>
      <point x="392" y="48" type="line"/>
      <point x="392" y="270" type="line"/>
      <point x="390" y="304"/>
      <point x="346" y="352"/>
      <point x="303" y="354" type="qcurve"/>
      <point x="271" y="354"/>
      <point x="218" y="333"/>
      <point x="178" y="295"/>
      <point x="156" y="243"/>
      <point x="156" y="212" type="qcurve"/>
      <point x="156" y="48" type="line"/>
      <point x="229" y="48" type="line"/>
      <point x="229" y="0" type="line"/>
      <point x="33" y="0" type="line"/>
      <point x="33" y="48" type="line"/>
      <point x="101" y="48" type="line"/>
      <point x="101" y="351" type="line"/>
      <point x="33" y="351" type="line"/>
      <point x="33" y="400" type="line"/>
      <point x="149" y="400" type="line"/>
      <point x="153" y="297" type="line"/>
      <point x="176" y="347"/>
      <point x="256" y="408"/>
      <point x="316" y="409" type="qcurve"/>
      <point x="372" y="409"/>
      <point x="440" y="350"/>
      <point x="446" y="302" type="qcurve"/>
      <point x="469" y="350"/>
      <point x="548" y="408"/>
      <point x="607" y="409" type="qcurve"/>
      <point x="667" y="409"/>
      <point x="736" y="343"/>
      <point x="738" y="289" type="qcurve"/>
      <point x="738" y="48" type="line"/>
      <point x="806" y="48" type="line"/>
      <point x="806" y="0" type="line"/>
      <point x="612" y="0" type="line"/>
      <point x="612" y="48" type="line"/>
      <point x="683" y="48" type="line"/>
      <point x="683" y="270" type="line"/>
      <point x="681" y="304"/>
      <point x="638" y="352"/>
      <point x="594" y="354" type="qcurve"/>
      <point x="531" y="354"/>
      <point x="449" y="276"/>
    </contour>
  </outline>
</glyph>
<glyph name="r" format="1">
  <advance width="334"/>
  <unicode hex="0072"/>
  <outline>
    <contour>
      <point x="309" y="340" type="line"/>
      <point x="279" y="340"/>
      <point x="224" y="321"/>
      <point x="181" y="287"/>
      <point x="156" y="238"/>
      <point x="156" y="208" type="qcurve"/>
      <point x="156" y="48" type="line"/>
      <point x="245" y="48" type="line"/>
      <point x="245" y="0" type="line"/>
      <point x="33" y="0" type="line"/>
      <point x="33" y="48" type="line"/>
      <point x="101" y="48" type="line"/>
      <point x="101" y="351" type="line"/>
      <point x="33" y="351" type="line"/>
      <point x="33" y="400" type="line"/>
      <point x="149" y="400" type="line"/>
      <point x="153" y="297" type="line"/>
      <point x="165" y="323"/>
      <point x="204" y="364"/>
      <point x="249" y="393"/>
      <point x="298" y="409"/>
      <point x="320" y="409" type="qcurve"/>
    </contour>
  </outline>
</glyph>
<glyph name="t" format="1">
  <advance width="283"/>
  <unicode hex="0074"/>
  <outline>
    <contour>
      <point x="151" y="346" type="line"/>
      <point x="151" y="48" type="line"/>
      <point x="245" y="48" type="line"/>
      <point x="245" y="0" type="line"/>
      <point x="96" y="0" type="line"/>
      <point x="96" y="346" type="line"/>
      <point x="15" y="346" type="line"/>
      <point x="15" y="396" type="line"/>
      <point x="96" y="396" type="line"/>
      <point x="96" y="575" type="line"/>
      <point x="151" y="575" type="line"/>
      <point x="151" y="396" type="line"/>
      <point x="269" y="396" type="line"/>
      <point x="269" y="346" type="line"/>
    </contour>
  </outline>
</glyph>
<glyph name="u" format="1">
  <advance width="530"/>
  <unicode hex="0075"/>
  <outline>
    <contour>
      <point x="506" y="0" type="line"/>
      <point x="393" y="0" type="line"/>
      <point x="387" y="103" type="line"/>
      <point x="365" y="53"/>
      <point x="279" y="-9"/>
      <point x="219" y="-9" type="qcurve"/>
      <point x="159" y="-9"/>
      <point x="90" y="57"/>
      <point x="88" y="111" type="qcurve"/>
      <point x="88" y="351" type="line"/>
      <point x="20" y="351" type="line"/>
      <point x="20" y="400" type="line"/>
      <point x="143" y="400" type="line"/>
      <point x="143" y="130" type="line"/>
      <point x="145" y="96"/>
      <point x="189" y="48"/>
      <point x="233" y="46" type="qcurve"/>
      <point x="264" y="46"/>
      <point x="319" y="67"/>
      <point x="360" y="104"/>
      <point x="383" y="156"/>
      <point x="383" y="187" type="qcurve"/>
      <point x="383" y="351" type="line"/>
      <point x="311" y="351" type="line"/>
      <point x="311" y="400" type="line"/>
      <point x="438" y="400" type="line"/>
      <point x="438" y="48" type="line"/>
      <point x="506" y="48" type="line"/>
    </contour>
  </outline>
</glyph>
<glyph name="y" format="1">
  <advance width="512"/>
  <unicode hex="0079"/>
  <outline>
    <contour>
      <point x="87" y="-144" type="line"/>
      <point x="157" y="-144" type="line"/>
      <point x="166" y="-124"/>
      <point x="186" y="-78"/>
      <point x="206" y="-35"/>
      <point x="223" y="1"/>
      <point x="228" y="11" type="qcurve"/>
      <point x="223" y="20"/>
      <point x="202" y="65"/>
      <point x="174" y="124"/>
      <point x="142" y="193"/>
      <point x="110" y="263"/>
      <point x="80" y="327"/>
      <point x="69" y="352" type="qcurve"/>
      <point x="7" y="352" type="line"/>
      <point x="7" y="400" type="line"/>
      <point x="190" y="400" type="line"/>
      <point x="190" y="352" type="line"/>
      <point x="128" y="352" type="line"/>
      <point x="147" y="313"/>
      <point x="191" y="215"/>
      <point x="230" y="129"/>
      <point x="256" y="67"/>
      <point x="256" y="64" type="qcurve"/>
      <point x="256" y="67"/>
      <point x="282" y="129"/>
      <point x="319" y="215"/>
      <point x="363" y="313"/>
      <point x="382" y="352" type="qcurve"/>
      <point x="323" y="352" type="line"/>
      <point x="323" y="400" type="line"/>
      <point x="505" y="400" type="line"/>
      <point x="505" y="352" type="line"/>
      <point x="442" y="352" type="line"/>
      <point x="211" y="-144" type="line"/>
      <point x="284" y="-144" type="line"/>
      <point x="284" y="-192" type="line"/>
      <point x="87" y="-192" type="line"/>
    </contour>
  </outline>
</glyph>
<glyph name="z" format="1">
  <advance width="424"/>
  <unicode hex="007A"/>
  <outline>
    <contour>
      <point x="389" y="111" type="line"/>
      <point x="389" y="0" type="line"/>
      <point x="24" y="0" type="line"/>
      <point x="273" y="352" type="line"/>
      <point x="110" y="352" type="line"/>
      <point x="77" y="352"/>
      <point x="38" y="381"/>
      <point x="38" y="411" type="qcurve"/>
      <point x="38" y="438" type="line"/>
      <point x="88" y="438" type="line"/>
      <point x="88" y="425" type="line"/>
      <point x="88" y="411"/>
      <point x="104" y="400"/>
      <point x="121" y="400" type="qcurve"/>
      <point x="373" y="400" type="line"/>
      <point x="128" y="54" type="line"/>
      <point x="341" y="54" type="line"/>
      <point x="341" y="111" type="line"/>
    </contour>
  </outline>
</glyph>
<glyph name="yen" format="1">
  <advance width="766"/>
  <unicode hex="00A5"/>
  <outline>
    <contour>
      <point x="419" y="249" type="line"/>
      <point x="419" y="169" type="line"/>
      <point x="552" y="169" type="line"/>
      <point x="552" y="128" type="line"/>
      <point x="419" y="128" type="line"/>
      <point x="419" y="60" type="line"/>
      <point x="499" y="60" type="line"/>
      <point x="499" y="0" type="line"/>
      <point x="270" y="0" type="line"/>
      <point x="270" y="60" type="line"/>
      <point x="350" y="60" type="line"/>
      <point x="350" y="128" type="line"/>
      <point x="219" y="128" type="line"/>
      <point x="219" y="169" type="line"/>
      <point x="350" y="169" type="line"/>
      <point x="350" y="249" type="line"/>
      <point x="345" y="257"/>
      <point x="332" y="278"/>
      <point x="325" y="291" type="qcurve"/>
      <point x="219" y="291" type="line"/>
      <point x="219" y="332" type="line"/>
      <point x="301" y="332" type="line"/>
      <point x="280" y="368"/>
      <point x="232" y="453"/>
      <point x="184" y="539"/>
      <point x="138" y="621"/>
      <point x="119" y="654" type="qcurve"/>
      <point x="33" y="654" type="line"/>
      <point x="33" y="714" type="line"/>
      <point x="261" y="714" type="line"/>
      <point x="261" y="654" type="line"/>
      <point x="196" y="654" type="line"/>
      <point x="215" y="620"/>
      <point x="261" y="540"/>
      <point x="308" y="456"/>
      <point x="353" y="374"/>
      <point x="373" y="339" type="qcurve"/>
      <point x="385" y="309" type="line"/>
      <point x="397" y="339" type="line"/>
      <point x="416" y="374"/>
      <point x="461" y="456"/>
      <point x="507" y="540"/>
      <point x="552" y="620"/>
      <point x="571" y="654" type="qcurve"/>
      <point x="507" y="654" type="line"/>
      <point x="507" y="714" type="line"/>
      <point x="733" y="714" type="line"/>
      <point x="733" y="654" type="line"/>
      <point x="650" y="654" type="line"/>
      <point x="466" y="332" type="line"/>
      <point x="552" y="332" type="line"/>
      <point x="552" y="291" type="line"/>
      <point x="443" y="291" type="line"/>
    </contour>
  </outline>
</glyph>
<glyph name="ordfeminine" format="1">
  <advance width="460"/>
  <unicode hex="00AA"/>
  <outline>
    <contour>
      <point x="355" y="341" type="line"/>
      <point x="404" y="341" type="line"/>
      <point x="404" y="306" type="line"/>
      <point x="315" y="306" type="line"/>
      <point x="315" y="364" type="line"/>
      <point x="305" y="341"/>
      <point x="246" y="300"/>
      <point x="201" y="300" type="qcurve"/>
      <point x="168" y="300"/>
      <point x="113" y="324"/>
      <point x="73" y="364"/>
      <point x="50" y="419"/>
      <point x="50" y="449" type="qcurve"/>
      <point x="50" y="480"/>
      <point x="74" y="535"/>
      <point x="115" y="577"/>
      <point x="169" y="601"/>
      <point x="200" y="601" type="qcurve"/>
      <point x="222" y="601"/>
      <point x="260" y="589"/>
      <point x="290" y="570"/>
      <point x="310" y="547"/>
      <point x="315" y="535" type="qcurve"/>
      <point x="315" y="564"/>
      <point x="318" y="594" type="qcurve"/>
      <point x="355" y="594" type="line"/>
    </contour>
    <contour>
      <point x="89" y="451" type="qcurve"/>
      <point x="89" y="427"/>
      <point x="106" y="386"/>
      <point x="137" y="356"/>
      <point x="178" y="339"/>
      <point x="202" y="339" type="qcurve"/>
      <point x="226" y="339"/>
      <point x="267" y="356"/>
      <point x="297" y="386"/>
      <point x="314" y="427"/>
      <point x="314" y="451" type="qcurve"/>
      <point x="314" y="474"/>
      <point x="297" y="515"/>
      <point x="267" y="545"/>
      <point x="226" y="562"/>
      <point x="202" y="562" type="qcurve"/>
      <point x="178" y="562"/>
      <point x="137" y="545"/>
      <point x="106" y="515"/>
      <point x="89" y="475"/>
    </contour>
  </outline>
</glyph>
<glyph name="registered" format="1">
  <advance width="646"/>
  <unicode hex="00AE"/>
  <outline>
    <contour>
      <point x="323" y="115" type="qcurve"/>
      <point x="269" y="115"/>
      <point x="175" y="154"/>
      <point x="105" y="223"/>
      <point x="65" y="317"/>
      <point x="65" y="372" type="qcurve"/>
      <point x="65" y="428"/>
      <point x="105" y="522"/>
      <point x="175" y="591"/>
      <point x="269" y="630"/>
      <point x="323" y="630" type="qcurve"/>
      <point x="377" y="630"/>
      <point x="471" y="591"/>
      <point x="541" y="522"/>
      <point x="581" y="428"/>
      <point x="581" y="372" type="qcurve"/>
      <point x="581" y="317"/>
      <point x="541" y="223"/>
      <point x="471" y="154"/>
      <point x="377" y="115"/>
    </contour>
    <contour>
      <point x="322" y="138" type="qcurve"/>
      <point x="371" y="138"/>
      <point x="457" y="173"/>
      <point x="520" y="236"/>
      <point x="557" y="321"/>
      <point x="557" y="371" type="qcurve"/>
      <point x="557" y="422"/>
      <point x="520" y="508"/>
      <point x="457" y="571"/>
      <point x="371" y="607"/>
      <point x="322" y="607" type="qcurve"/>
      <point x="274" y="607"/>
      <point x="189" y="571"/>
      <point x="126" y="508"/>
      <point x="89" y="422"/>
      <point x="89" y="371" type="qcurve"/>
      <point x="89" y="321"/>
      <point x="126" y="236"/>
      <point x="189" y="173"/>
      <point x="274" y="138"/>
    </contour>
    <contour>
      <point x="461" y="241" type="line"/>
      <point x="461" y="214" type="line"/>
      <point x="404" y="214" type="line"/>
      <point x="399" y="222"/>
      <point x="378" y="255"/>
      <point x="355" y="294"/>
      <point x="332" y="331"/>
      <point x="324" y="343" type="qcurve"/>
      <point x="319" y="342"/>
      <point x="310" y="342"/>
      <point x="305" y="342" type="qcurve"/>
      <point x="257" y="342" type="line"/>
      <point x="257" y="241" type="line"/>
      <point x="293" y="241" type="line"/>
      <point x="293" y="214" type="line"/>
      <point x="191" y="214" type="line"/>
      <point x="191" y="241" type="line"/>
      <point x="227" y="241" type="line"/>
      <point x="227" y="507" type="line"/>
      <point x="191" y="507" type="line"/>
      <point x="191" y="534" type="line"/>
      <point x="304" y="534" type="line"/>
      <point x="324" y="534"/>
      <point x="362" y="523"/>
      <point x="391" y="499"/>
      <point x="409" y="464"/>
      <point x="409" y="440" type="qcurve"/>
      <point x="409" y="413"/>
      <point x="385" y="365"/>
      <point x="356" y="352" type="qcurve"/>
      <point x="424" y="241" type="line"/>
    </contour>
    <contour>
      <point x="257" y="371" type="line"/>
      <point x="305" y="371" type="line"/>
      <point x="326" y="371"/>
      <point x="355" y="385"/>
      <point x="371" y="406"/>
      <point x="378" y="430"/>
      <point x="378" y="440" type="qcurve"/>
      <point x="378" y="465"/>
      <point x="341" y="505"/>
      <point x="305" y="505" type="qcurve"/>
      <point x="257" y="505" type="line"/>
    </contour>
  </outline>
</glyph>
<glyph name="mu" format="1">
  <advance width="564"/>
  <unicode hex="00B5"/>
  <outline>
    <contour>
      <point x="523" y="0" type="line"/>
      <point x="410" y="0" type="line"/>
      <point x="404" y="103" type="line"/>
      <point x="382" y="53"/>
      <point x="296" y="-9"/>
      <point x="236" y="-9" type="qcurve"/>
      <point x="190" y="-9"/>
      <point x="159" y="11" type="qcurve"/>
      <point x="159" y="-201" type="line"/>
      <point x="105" y="-201" type="line"/>
      <point x="105" y="105" type="line"/>
      <point x="105" y="111" type="line"/>
      <point x="105" y="351" type="line"/>
      <point x="37" y="351" type="line"/>
      <point x="37" y="400" type="line"/>
      <point x="160" y="400" type="line"/>
      <point x="160" y="130" type="line"/>
      <point x="162" y="96"/>
      <point x="206" y="48"/>
      <point x="250" y="46" type="qcurve"/>
      <point x="281" y="46"/>
      <point x="336" y="67"/>
      <point x="377" y="104"/>
      <point x="400" y="156"/>
      <point x="400" y="187" type="qcurve"/>
      <point x="400" y="351" type="line"/>
      <point x="328" y="351" type="line"/>
      <point x="328" y="400" type="line"/>
      <point x="455" y="400" type="line"/>
      <point x="455" y="48" type="line"/>
      <point x="523" y="48" type="line"/>
    </contour>
  </outline>
</glyph>
<glyph name="threequarters" format="1">
  <advance width="987"/>
  <unicode hex="00BE"/>
  <outline>
    <contour>
      <point x="941" y="42" type="line"/>
      <point x="941" y="0" type="line"/>
      <point x="770" y="0" type="line"/>
      <point x="770" y="42" type="line"/>
      <point x="831" y="42" type="line"/>
      <point x="831" y="130" type="line"/>
      <point x="592" y="130" type="line"/>
      <point x="661" y="220"/>
      <point x="806" y="404"/>
      <point x="875" y="494" type="qcurve"/>
      <point x="875" y="173" type="line"/>
      <point x="948" y="173" type="line"/>
      <point x="948" y="130" type="line"/>
      <point x="875" y="130" type="line"/>
      <point x="875" y="42" type="line"/>
    </contour>
    <contour>
      <point x="64" y="624" type="line"/>
      <point x="64" y="712" type="line"/>
      <point x="323" y="712" type="line"/>
      <point x="291" y="664"/>
      <point x="225" y="571"/>
      <point x="193" y="523" type="qcurve"/>
      <point x="222" y="518"/>
      <point x="272" y="490"/>
      <point x="309" y="449"/>
      <point x="330" y="395"/>
      <point x="330" y="364" type="qcurve"/>
      <point x="330" y="330"/>
      <point x="303" y="271"/>
      <point x="258" y="226"/>
      <point x="198" y="200"/>
      <point x="164" y="200" type="qcurve"/>
      <point x="128" y="200"/>
      <point x="66" y="229"/>
      <point x="43" y="254" type="qcurve"/>
      <point x="76" y="286" type="line"/>
      <point x="92" y="266"/>
      <point x="136" y="244"/>
      <point x="163" y="244" type="qcurve"/>
      <point x="188" y="244"/>
      <point x="232" y="263"/>
      <point x="265" y="296"/>
      <point x="285" y="340"/>
      <point x="285" y="364" type="qcurve"/>
      <point x="285" y="389"/>
      <point x="265" y="434"/>
      <point x="232" y="466"/>
      <point x="188" y="485"/>
      <point x="163" y="485" type="qcurve"/>
      <point x="134" y="485"/>
      <point x="114" y="469" type="qcurve"/>
      <point x="146" y="520"/>
      <point x="216" y="618"/>
      <point x="249" y="668" type="qcurve"/>
      <point x="107" y="668" type="line"/>
      <point x="107" y="624" type="line"/>
    </contour>
    <contour>
      <point x="355" y="-19" type="line"/>
      <point x="426" y="173"/>
      <point x="565" y="550"/>
      <point x="635" y="742" type="qcurve"/>
      <point x="694" y="742" type="line"/>
      <point x="623" y="550"/>
      <point x="485" y="173"/>
      <point x="414" y="-19" type="qcurve"/>
    </contour>
    <contour>
      <point x="831" y="375" type="line"/>
      <point x="676" y="173" type="line"/>
      <point x="831" y="173" type="line"/>
    </contour>
  </outline>
</glyph>
<glyph name="Aacute" format="1">
  <advance width="736"/>
  <unicode hex="00C1"/>
  <outline>
    <contour>
      <point x="4" y="60" type="line"/>
      <point x="4" y="0" type="line"/>
      <point x="232" y="0" type="line"/>
      <point x="232" y="60" type="line"/>
      <point x="152" y="60" type="line"/>
      <point x="230" y="255" type="line"/>
      <point x="505" y="255" type="line"/>
      <point x="584" y="60" type="line"/>
      <point x="506" y="60" type="line"/>
      <point x="506" y="0" type="line"/>
      <point x="734" y="0" type="line"/>
      <point x="734" y="60" type="line"/>
      <point x="652" y="60" type="line"/>
      <point x="368" y="747" type="line"/>
      <point x="84" y="60" type="line"/>
    </contour>
    <contour>
      <point x="358" y="572" type="line"/>
      <point x="360" y="578"/>
      <point x="362" y="583" type="qcurve"/>
      <point x="364" y="588"/>
      <point x="366" y="598"/>
      <point x="368" y="603" type="qcurve"/>
      <point x="369" y="598"/>
      <point x="372" y="588"/>
      <point x="374" y="583" type="qcurve"/>
      <point x="376" y="578"/>
      <point x="378" y="572" type="qcurve"/>
      <point x="481" y="314" type="line"/>
      <point x="254" y="314" type="line"/>
    </contour>
    <contour>
      <point x="294" y="759" type="line"/>
      <point x="385" y="893" type="line"/>
      <point x="444" y="893" type="line"/>
      <point x="418" y="859"/>
      <point x="364" y="792"/>
      <point x="337" y="759" type="qcurve"/>
    </contour>
  </outline>
</glyph>
<glyph name="Atilde" format="1">
  <advance width="736"/>
  <unicode hex="00C3"/>
  <outline>
    <contour>
      <point x="4" y="60" type="line"/>
      <point x="4" y="0" type="line"/>
      <point x="232" y="0" type="line"/>
      <point x="232" y="60" type="line"/>
      <point x="152" y="60" type="line"/>
      <point x="230" y="255" type="line"/>
      <point x="505" y="255" type="line"/>
      <point x="584" y="60" type="line"/>
      <point x="506" y="60" type="line"/>
      <point x="506" y="0" type="line"/>
      <point x="734" y="0" type="line"/>
      <point x="734" y="60" type="line"/>
      <point x="652" y="60" type="line"/>
      <point x="368" y="747" type="line"/>
      <point x="84" y="60" type="line"/>
    </contour>
    <contour>
      <point x="358" y="572" type="line"/>
      <point x="360" y="578"/>
      <point x="362" y="583" type="qcurve"/>
      <point x="364" y="588"/>
      <point x="366" y="598"/>
      <point x="368" y="603" type="qcurve"/>
      <point x="369" y="598"/>
      <point x="372" y="588"/>
      <point x="374" y="583" type="qcurve"/>
      <point x="376" y="578"/>
      <point x="378" y="572" type="qcurve"/>
      <point x="481" y="314" type="line"/>
      <point x="254" y="314" type="line"/>
    </contour>
    <contour>
      <point x="360" y="794" type="qcurve"/>
      <point x="344" y="811"/>
      <point x="321" y="822"/>
      <point x="307" y="822" type="qcurve"/>
      <point x="299" y="822"/>
      <point x="281" y="818"/>
      <point x="263" y="807"/>
      <point x="250" y="787"/>
      <point x="248" y="772" type="qcurve"/>
      <point x="215" y="774" type="line"/>
      <point x="216" y="794"/>
      <point x="233" y="824"/>
      <point x="258" y="845"/>
      <point x="288" y="855"/>
      <point x="303" y="855" type="qcurve"/>
      <point x="326" y="855"/>
      <point x="362" y="837"/>
      <point x="378" y="820" type="qcurve"/>
      <point x="394" y="803"/>
      <point x="417" y="792"/>
      <point x="431" y="792" type="qcurve"/>
      <point x="438" y="792"/>
      <point x="457" y="796"/>
      <point x="475" y="807"/>
      <point x="488" y="827"/>
      <point x="490" y="842" type="qcurve"/>
      <point x="523" y="840" type="line"/>
      <point x="522" y="820"/>
      <point x="505" y="790"/>
      <point x="480" y="769"/>
      <point x="450" y="759"/>
      <point x="435" y="759" type="qcurve"/>
      <point x="412" y="759"/>
      <point x="376" y="778"/>
    </contour>
  </outline>
</glyph>
<glyph name="Adieresis" format="1">
  <advance width="735"/>
  <unicode hex="00C4"/>
  <outline>
    <contour>
      <point x="4" y="60" type="line"/>
      <point x="4" y="0" type="line"/>
      <point x="232" y="0" type="line"/>
      <point x="232" y="60" type="line"/>
      <point x="152" y="60" type="line"/>
      <point x="230" y="255" type="line"/>
      <point x="505" y="255" type="line"/>
      <point x="584" y="60" type="line"/>
      <point x="506" y="60" type="line"/>
      <point x="506" y="0" type="line"/>
      <point x="734" y="0" type="line"/>
      <point x="734" y="60" type="line"/>
      <point x="652" y="60" type="line"/>
      <point x="368" y="747" type="line"/>
      <point x="84" y="60" type="line"/>
    </contour>
    <contour>
      <point x="358" y="572" type="line"/>
      <point x="360" y="578"/>
      <point x="362" y="583" type="qcurve"/>
      <point x="364" y="588"/>
      <point x="366" y="598"/>
      <point x="368" y="603" type="qcurve"/>
      <point x="369" y="598"/>
      <point x="372" y="588"/>
      <point x="374" y="583" type="qcurve"/>
      <point x="376" y="578"/>
      <point x="378" y="572" type="qcurve"/>
      <point x="481" y="314" type="line"/>
      <point x="254" y="314" type="line"/>
    </contour>
    <contour>
      <point x="238" y="813" type="qcurve"/>
      <point x="238" y="830"/>
      <point x="262" y="854"/>
      <point x="278" y="854" type="qcurve"/>
      <point x="293" y="854"/>
      <point x="318" y="830"/>
      <point x="318" y="813" type="qcurve"/>
      <point x="318" y="795"/>
      <point x="293" y="772"/>
      <point x="278" y="772" type="qcurve"/>
      <point x="262" y="772"/>
      <point x="238" y="795"/>
    </contour>
    <contour>
      <point x="417" y="813" type="qcurve"/>
      <point x="417" y="830"/>
      <point x="441" y="854"/>
      <point x="457" y="854" type="qcurve"/>
      <point x="472" y="854"/>
      <point x="497" y="830"/>
      <point x="497" y="813" type="qcurve"/>
      <point x="497" y="795"/>
      <point x="472" y="772"/>
      <point x="457" y="772" type="qcurve"/>
      <point x="441" y="772"/>
      <point x="417" y="795"/>
    </contour>
  </outline>
</glyph>
<glyph name="Aring" format="1">
  <advance width="736"/>
  <unicode hex="00C5"/>
  <outline>
    <contour>
      <point x="84" y="60" type="line"/>
      <point x="368" y="747" type="line"/>
      <point x="652" y="60" type="line"/>
      <point x="734" y="60" type="line"/>
      <point x="734" y="0" type="line"/>
      <point x="506" y="0" type="line"/>
      <point x="506" y="60" type="line"/>
      <point x="584" y="60" type="line"/>
      <point x="505" y="255" type="line"/>
      <point x="230" y="255" type="line"/>
      <point x="152" y="60" type="line"/>
      <point x="232" y="60" type="line"/>
      <point x="232" y="0" type="line"/>
      <point x="4" y="0" type="line"/>
      <point x="4" y="60" type="line"/>
    </contour>
    <contour>
      <point x="254" y="314" type="line"/>
      <point x="481" y="314" type="line"/>
      <point x="378" y="572" type="line"/>
      <point x="376" y="578"/>
      <point x="374" y="583" type="qcurve"/>
      <point x="372" y="588"/>
      <point x="369" y="598"/>
      <point x="368" y="603" type="qcurve"/>
      <point x="366" y="598"/>
      <point x="364" y="588"/>
      <point x="362" y="583" type="qcurve"/>
      <point x="360" y="578"/>
      <point x="358" y="572" type="qcurve"/>
    </contour>
    <contour>
      <point x="293" y="825" type="qcurve"/>
      <point x="293" y="857"/>
      <point x="337" y="901"/>
      <point x="369" y="901" type="qcurve"/>
      <point x="400" y="901"/>
      <point x="444" y="857"/>
      <point x="444" y="825" type="qcurve"/>
      <point x="444" y="793"/>
      <point x="400" y="749"/>
      <point x="369" y="749" type="qcurve"/>
      <point x="337" y="749"/>
      <point x="293" y="793"/>
    </contour>
    <contour>
      <point x="328" y="824" type="qcurve"/>
      <point x="328" y="807"/>
      <point x="352" y="784"/>
      <point x="369" y="784" type="qcurve"/>
      <point x="386" y="784"/>
      <point x="410" y="807"/>
      <point x="410" y="824" type="qcurve"/>
      <point x="410" y="841"/>
      <point x="386" y="866"/>
      <point x="369" y="866" type="qcurve"/>
      <point x="352" y="866"/>
      <point x="328" y="841"/>
    </contour>
  </outline>
</glyph>
<glyph name="AE" format="1">
  <advance width="722"/>
  <unicode hex="00C6"/>
  <outline>
    <contour>
      <point x="595" y="580" type="line"/>
      <point x="595" y="652" type="line"/>
      <point x="425" y="652" type="line"/>
      <point x="425" y="391" type="line"/>
      <point x="620" y="391" type="line"/>
      <point x="620" y="327" type="line"/>
      <point x="425" y="327" type="line"/>
      <point x="425" y="64" type="line"/>
      <point x="609" y="64" type="line"/>
      <point x="609" y="140" type="line"/>
      <point x="673" y="140" type="line"/>
      <point x="673" y="0" type="line"/>
      <point x="357" y="0" type="line"/>
      <point x="357" y="255" type="line"/>
      <point x="228" y="255" type="line"/>
      <point x="150" y="60" type="line"/>
      <point x="230" y="60" type="line"/>
      <point x="230" y="0" type="line"/>
      <point x="6" y="0" type="line"/>
      <point x="6" y="60" type="line"/>
      <point x="87" y="60" type="line"/>
      <point x="357" y="714" type="line"/>
      <point x="659" y="714" type="line"/>
      <point x="659" y="580" type="line"/>
    </contour>
    <contour>
      <point x="356" y="572" type="line"/>
      <point x="252" y="314" type="line"/>
      <point x="357" y="314" type="line"/>
      <point x="357" y="574" type="line"/>
    </contour>
  </outline>
</glyph>
<glyph name="Eacute" format="1">
  <advance width="648"/>
  <unicode hex="00C9"/>
  <outline>
    <contour>
      <point x="520" y="580" type="line"/>
      <point x="520" y="652" type="line"/>
      <point x="203" y="652" type="line"/>
      <point x="203" y="391" type="line"/>
      <point x="545" y="391" type="line"/>
      <point x="545" y="327" type="line"/>
      <point x="203" y="327" type="line"/>
      <point x="203" y="64" type="line"/>
      <point x="534" y="64" type="line"/>
      <point x="534" y="140" type="line"/>
      <point x="598" y="140" type="line"/>
      <point x="598" y="0" type="line"/>
      <point x="57" y="0" type="line"/>
      <point x="57" y="60" type="line"/>
      <point x="135" y="60" type="line"/>
      <point x="135" y="654" type="line"/>
      <point x="57" y="654" type="line"/>
      <point x="57" y="714" type="line"/>
      <point x="584" y="714" type="line"/>
      <point x="584" y="580" type="line"/>
    </contour>
    <contour>
      <point x="295" y="757" type="line"/>
      <point x="386" y="891" type="line"/>
      <point x="445" y="891" type="line"/>
      <point x="419" y="857"/>
      <point x="365" y="790"/>
      <point x="338" y="757" type="qcurve"/>
    </contour>
  </outline>
</glyph>
<glyph name="Edieresis" format="1">
  <advance width="648"/>
  <unicode hex="00CB"/>
  <outline>
    <contour>
      <point x="520" y="580" type="line"/>
      <point x="520" y="652" type="line"/>
      <point x="203" y="652" type="line"/>
      <point x="203" y="391" type="line"/>
      <point x="545" y="391" type="line"/>
      <point x="545" y="327" type="line"/>
      <point x="203" y="327" type="line"/>
      <point x="203" y="64" type="line"/>
      <point x="534" y="64" type="line"/>
      <point x="534" y="140" type="line"/>
      <point x="598" y="140" type="line"/>
      <point x="598" y="0" type="line"/>
      <point x="57" y="0" type="line"/>
      <point x="57" y="60" type="line"/>
      <point x="135" y="60" type="line"/>
      <point x="135" y="654" type="line"/>
      <point x="57" y="654" type="line"/>
      <point x="57" y="714" type="line"/>
      <point x="584" y="714" type="line"/>
      <point x="584" y="580" type="line"/>
    </contour>
    <contour>
      <point x="217" y="798" type="qcurve"/>
      <point x="217" y="815"/>
      <point x="241" y="839"/>
      <point x="257" y="839" type="qcurve"/>
      <point x="272" y="839"/>
      <point x="297" y="815"/>
      <point x="297" y="798" type="qcurve"/>
      <point x="297" y="780"/>
      <point x="272" y="757"/>
      <point x="257" y="757" type="qcurve"/>
      <point x="241" y="757"/>
      <point x="217" y="780"/>
    </contour>
    <contour>
      <point x="396" y="798" type="qcurve"/>
      <point x="396" y="815"/>
      <point x="420" y="839"/>
      <point x="436" y="839" type="qcurve"/>
      <point x="451" y="839"/>
      <point x="476" y="815"/>
      <point x="476" y="798" type="qcurve"/>
      <point x="476" y="780"/>
      <point x="451" y="757"/>
      <point x="436" y="757" type="qcurve"/>
      <point x="420" y="757"/>
      <point x="396" y="780"/>
    </contour>
  </outline>
</glyph>
<glyph name="Igrave" format="1">
  <advance width="338"/>
  <unicode hex="00CC"/>
  <outline>
    <contour>
      <point x="284" y="714" type="line"/>
      <point x="284" y="654" type="line"/>
      <point x="203" y="654" type="line"/>
      <point x="203" y="60" type="line"/>
      <point x="284" y="60" type="line"/>
      <point x="284" y="0" type="line"/>
      <point x="56" y="0" type="line"/>
      <point x="56" y="60" type="line"/>
      <point x="135" y="60" type="line"/>
      <point x="135" y="654" type="line"/>
      <point x="56" y="654" type="line"/>
      <point x="56" y="714" type="line"/>
    </contour>
    <contour>
      <point x="138" y="901" type="line"/>
      <point x="161" y="867"/>
      <point x="206" y="800"/>
      <point x="229" y="767" type="qcurve"/>
      <point x="185" y="767" type="line"/>
      <point x="78" y="901" type="line"/>
    </contour>
  </outline>
</glyph>
<glyph name="Icircumflex" format="1">
  <advance width="338"/>
  <unicode hex="00CE"/>
  <outline>
    <contour>
      <point x="284" y="714" type="line"/>
      <point x="284" y="654" type="line"/>
      <point x="203" y="654" type="line"/>
      <point x="203" y="60" type="line"/>
      <point x="284" y="60" type="line"/>
      <point x="284" y="0" type="line"/>
      <point x="56" y="0" type="line"/>
      <point x="56" y="60" type="line"/>
      <point x="135" y="60" type="line"/>
      <point x="135" y="654" type="line"/>
      <point x="56" y="654" type="line"/>
      <point x="56" y="714" type="line"/>
    </contour>
    <contour>
      <point x="170" y="891" type="qcurve"/>
      <point x="198" y="860"/>
      <point x="223" y="833" type="qcurve"/>
      <point x="244" y="810"/>
      <point x="283" y="765"/>
      <point x="291" y="757" type="qcurve"/>
      <point x="247" y="757" type="line"/>
      <point x="170" y="827" type="line"/>
      <point x="92" y="757" type="line"/>
      <point x="49" y="757" type="line"/>
      <point x="55" y="765"/>
      <point x="95" y="809"/>
      <point x="116" y="832" type="qcurve"/>
      <point x="141" y="859"/>
    </contour>
  </outline>
</glyph>
<glyph name="Idieresis" format="1">
  <advance width="338"/>
  <unicode hex="00CF"/>
  <outline>
    <contour>
      <point x="284" y="714" type="line"/>
      <point x="284" y="654" type="line"/>
      <point x="203" y="654" type="line"/>
      <point x="203" y="60" type="line"/>
      <point x="284" y="60" type="line"/>
      <point x="284" y="0" type="line"/>
      <point x="56" y="0" type="line"/>
      <point x="56" y="60" type="line"/>
      <point x="135" y="60" type="line"/>
      <point x="135" y="654" type="line"/>
      <point x="56" y="654" type="line"/>
      <point x="56" y="714" type="line"/>
    </contour>
    <contour>
      <point x="40" y="800" type="qcurve"/>
      <point x="40" y="817"/>
      <point x="64" y="841"/>
      <point x="80" y="841" type="qcurve"/>
      <point x="95" y="841"/>
      <point x="120" y="817"/>
      <point x="120" y="800" type="qcurve"/>
      <point x="120" y="782"/>
      <point x="95" y="759"/>
      <point x="80" y="759" type="qcurve"/>
      <point x="64" y="759"/>
      <point x="40" y="782"/>
    </contour>
    <contour>
      <point x="219" y="800" type="qcurve"/>
      <point x="219" y="817"/>
      <point x="243" y="841"/>
      <point x="259" y="841" type="qcurve"/>
      <point x="274" y="841"/>
      <point x="299" y="817"/>
      <point x="299" y="800" type="qcurve"/>
      <point x="299" y="782"/>
      <point x="274" y="759"/>
      <point x="259" y="759" type="qcurve"/>
      <point x="243" y="759"/>
      <point x="219" y="782"/>
    </contour>
  </outline>
</glyph>
<glyph name="Ntilde" format="1">
  <advance width="867"/>
  <unicode hex="00D1"/>
  <outline>
    <contour>
      <point x="284" y="60" type="line"/>
      <point x="284" y="0" type="line"/>
      <point x="56" y="0" type="line"/>
      <point x="56" y="60" type="line"/>
      <point x="134" y="60" type="line"/>
      <point x="134" y="654" type="line"/>
      <point x="54" y="654" type="line"/>
      <point x="54" y="714" type="line"/>
      <point x="165" y="714" type="line"/>
      <point x="194" y="678"/>
      <point x="274" y="586"/>
      <point x="365" y="485"/>
      <point x="462" y="380"/>
      <point x="552" y="280"/>
      <point x="630" y="190"/>
      <point x="658" y="155" type="qcurve"/>
      <point x="677" y="128" type="line"/>
      <point x="674" y="161" type="line"/>
      <point x="674" y="655" type="line"/>
      <point x="591" y="655" type="line"/>
      <point x="591" y="715" type="line"/>
      <point x="819" y="715" type="line"/>
      <point x="819" y="655" type="line"/>
      <point x="742" y="655" type="line"/>
      <point x="742" y="-33" type="line"/>
      <point x="713" y="2"/>
      <point x="628" y="99"/>
      <point x="529" y="209"/>
      <point x="424" y="324"/>
      <point x="327" y="434"/>
      <point x="245" y="529"/>
      <point x="219" y="564" type="qcurve"/>
      <point x="200" y="590" type="line"/>
      <point x="203" y="558" type="line"/>
      <point x="203" y="60" type="line"/>
    </contour>
    <contour>
      <point x="412" y="793" type="qcurve"/>
      <point x="396" y="810"/>
      <point x="373" y="821"/>
      <point x="359" y="821" type="qcurve"/>
      <point x="351" y="821"/>
      <point x="333" y="817"/>
      <point x="315" y="806"/>
      <point x="302" y="786"/>
      <point x="300" y="771" type="qcurve"/>
      <point x="267" y="773" type="line"/>
      <point x="268" y="793"/>
      <point x="285" y="823"/>
      <point x="310" y="844"/>
      <point x="340" y="854"/>
      <point x="355" y="854" type="qcurve"/>
      <point x="378" y="854"/>
      <point x="414" y="836"/>
      <point x="430" y="819" type="qcurve"/>
      <point x="446" y="802"/>
      <point x="469" y="791"/>
      <point x="483" y="791" type="qcurve"/>
      <point x="490" y="791"/>
      <point x="509" y="795"/>
      <point x="527" y="806"/>
      <point x="540" y="826"/>
      <point x="542" y="841" type="qcurve"/>
      <point x="575" y="839" type="line"/>
      <point x="574" y="819"/>
      <point x="557" y="789"/>
      <point x="532" y="768"/>
      <point x="502" y="758"/>
      <point x="487" y="758" type="qcurve"/>
      <point x="464" y="758"/>
      <point x="428" y="777"/>
    </contour>
  </outline>
</glyph>
<glyph name="Otilde" format="1">
  <advance width="828"/>
  <unicode hex="00D5"/>
  <outline>
    <contour>
      <point x="49" y="356" type="qcurve"/>
      <point x="49" y="431"/>
      <point x="106" y="564"/>
      <point x="205" y="664"/>
      <point x="338" y="722"/>
      <point x="413" y="722" type="qcurve"/>
      <point x="488" y="722"/>
      <point x="622" y="664"/>
      <point x="721" y="564"/>
      <point x="779" y="431"/>
      <point x="779" y="356" type="qcurve"/>
      <point x="779" y="281"/>
      <point x="721" y="148"/>
      <point x="622" y="49"/>
      <point x="488" y="-8"/>
      <point x="413" y="-8" type="qcurve"/>
      <point x="338" y="-8"/>
      <point x="205" y="49"/>
      <point x="106" y="148"/>
      <point x="49" y="281"/>
    </contour>
    <contour>
      <point x="117" y="356" type="qcurve"/>
      <point x="117" y="294"/>
      <point x="164" y="185"/>
      <point x="244" y="104"/>
      <point x="352" y="57"/>
      <point x="413" y="57" type="qcurve"/>
      <point x="474" y="57"/>
      <point x="583" y="104"/>
      <point x="664" y="185"/>
      <point x="711" y="294"/>
      <point x="711" y="356" type="qcurve"/>
      <point x="711" y="418"/>
      <point x="664" y="527"/>
      <point x="583" y="609"/>
      <point x="474" y="656"/>
      <point x="413" y="656" type="qcurve"/>
      <point x="351" y="656"/>
      <point x="244" y="609"/>
      <point x="163" y="527"/>
      <point x="117" y="418"/>
    </contour>
    <contour>
      <point x="410" y="797" type="qcurve"/>
      <point x="394" y="814"/>
      <point x="371" y="825"/>
      <point x="357" y="825" type="qcurve"/>
      <point x="349" y="825"/>
      <point x="331" y="821"/>
      <point x="313" y="810"/>
      <point x="300" y="790"/>
      <point x="298" y="775" type="qcurve"/>
      <point x="265" y="777" type="line"/>
      <point x="266" y="797"/>
      <point x="283" y="827"/>
      <point x="308" y="848"/>
      <point x="338" y="858"/>
      <point x="353" y="858" type="qcurve"/>
      <point x="376" y="858"/>
      <point x="412" y="840"/>
      <point x="428" y="823" type="qcurve"/>
      <point x="444" y="806"/>
      <point x="467" y="795"/>
      <point x="481" y="795" type="qcurve"/>
      <point x="488" y="795"/>
      <point x="507" y="799"/>
      <point x="525" y="810"/>
      <point x="538" y="830"/>
      <point x="540" y="845" type="qcurve"/>
      <point x="573" y="843" type="line"/>
      <point x="572" y="823"/>
      <point x="555" y="793"/>
      <point x="530" y="772"/>
      <point x="500" y="762"/>
      <point x="485" y="762" type="qcurve"/>
      <point x="462" y="762"/>
      <point x="426" y="781"/>
    </contour>
  </outline>
</glyph>
<glyph name="Oslash" format="1">
  <advance width="827"/>
  <unicode hex="00D8"/>
  <outline>
    <contour>
      <point x="48" y="356" type="qcurve"/>
      <point x="48" y="431"/>
      <point x="105" y="564"/>
      <point x="204" y="664"/>
      <point x="337" y="722"/>
      <point x="412" y="722" type="qcurve"/>
      <point x="472" y="722"/>
      <point x="579" y="685"/>
      <point x="624" y="653" type="qcurve"/>
      <point x="642" y="673"/>
      <point x="672" y="710"/>
      <point x="685" y="725" type="qcurve"/>
      <point x="718" y="695" type="line"/>
      <point x="659" y="625" type="line"/>
      <point x="714" y="574"/>
      <point x="778" y="435"/>
      <point x="778" y="356" type="qcurve"/>
      <point x="778" y="281"/>
      <point x="720" y="148"/>
      <point x="621" y="49"/>
      <point x="487" y="-8"/>
      <point x="412" y="-8" type="qcurve"/>
      <point x="348" y="-8"/>
      <point x="234" y="33"/>
      <point x="187" y="69" type="qcurve"/>
      <point x="121" y="-9" type="line"/>
      <point x="88" y="21" type="line"/>
      <point x="154" y="99" type="line"/>
      <point x="104" y="149"/>
      <point x="48" y="281"/>
    </contour>
    <contour>
      <point x="230" y="120" type="line"/>
      <point x="268" y="90"/>
      <point x="360" y="57"/>
      <point x="412" y="57" type="qcurve"/>
      <point x="473" y="57"/>
      <point x="582" y="104"/>
      <point x="663" y="185"/>
      <point x="710" y="294"/>
      <point x="710" y="356" type="qcurve"/>
      <point x="710" y="420"/>
      <point x="660" y="532"/>
      <point x="616" y="574" type="qcurve"/>
    </contour>
    <contour>
      <point x="116" y="356" type="qcurve"/>
      <point x="116" y="296"/>
      <point x="159" y="191"/>
      <point x="197" y="150" type="qcurve"/>
      <point x="581" y="602" type="line"/>
      <point x="545" y="628"/>
      <point x="460" y="656"/>
      <point x="412" y="656" type="qcurve"/>
      <point x="350" y="656"/>
      <point x="243" y="609"/>
      <point x="162" y="527"/>
      <point x="116" y="418"/>
    </contour>
  </outline>
</glyph>
<glyph name="Ucircumflex" format="1">
  <advance width="749"/>
  <unicode hex="00DB"/>
  <outline>
    <contour>
      <point x="269" y="714" type="line"/>
      <point x="269" y="654" type="line"/>
      <point x="190" y="654" type="line"/>
      <point x="190" y="246" type="line"/>
      <point x="190" y="203"/>
      <point x="218" y="133"/>
      <point x="267" y="84"/>
      <point x="335" y="57"/>
      <point x="375" y="57" type="qcurve"/>
      <point x="414" y="57"/>
      <point x="482" y="84"/>
      <point x="532" y="133"/>
      <point x="561" y="203"/>
      <point x="561" y="246" type="qcurve"/>
      <point x="561" y="714" type="line"/>
      <point x="708" y="714" type="line"/>
      <point x="708" y="654" type="line"/>
      <point x="630" y="654" type="line"/>
      <point x="630" y="243" type="line"/>
      <point x="630" y="184"/>
      <point x="591" y="91"/>
      <point x="522" y="27"/>
      <point x="429" y="-8"/>
      <point x="375" y="-8" type="qcurve"/>
      <point x="321" y="-8"/>
      <point x="229" y="27"/>
      <point x="160" y="91"/>
      <point x="121" y="184"/>
      <point x="121" y="243" type="qcurve"/>
      <point x="121" y="654" type="line"/>
      <point x="41" y="654" type="line"/>
      <point x="41" y="714" type="line"/>
    </contour>
    <contour>
      <point x="378" y="939" type="line"/>
      <point x="408" y="894"/>
      <point x="468" y="802"/>
      <point x="499" y="757" type="qcurve"/>
      <point x="455" y="757" type="line"/>
      <point x="447" y="769"/>
      <point x="427" y="797"/>
      <point x="406" y="827"/>
      <point x="386" y="856"/>
      <point x="378" y="867" type="qcurve"/>
      <point x="370" y="856"/>
      <point x="350" y="827"/>
      <point x="328" y="797"/>
      <point x="308" y="769"/>
      <point x="300" y="757" type="qcurve"/>
      <point x="257" y="757" type="line"/>
    </contour>
  </outline>
</glyph>
<glyph name="Udieresis" format="1">
  <advance width="749"/>
  <unicode hex="00DC"/>
  <outline>
    <contour>
      <point x="269" y="714" type="line"/>
      <point x="269" y="654" type="line"/>
      <point x="190" y="654" type="line"/>
      <point x="190" y="246" type="line"/>
      <point x="190" y="203"/>
      <point x="218" y="133"/>
      <point x="267" y="84"/>
      <point x="335" y="57"/>
      <point x="375" y="57" type="qcurve"/>
      <point x="414" y="57"/>
      <point x="482" y="84"/>
      <point x="532" y="133"/>
      <point x="561" y="203"/>
      <point x="561" y="246" type="qcurve"/>
      <point x="561" y="714" type="line"/>
      <point x="708" y="714" type="line"/>
      <point x="708" y="654" type="line"/>
      <point x="630" y="654" type="line"/>
      <point x="630" y="243" type="line"/>
      <point x="630" y="184"/>
      <point x="591" y="91"/>
      <point x="522" y="27"/>
      <point x="429" y="-8"/>
      <point x="375" y="-8" type="qcurve"/>
      <point x="321" y="-8"/>
      <point x="229" y="27"/>
      <point x="160" y="91"/>
      <point x="121" y="184"/>
      <point x="121" y="243" type="qcurve"/>
      <point x="121" y="654" type="line"/>
      <point x="41" y="654" type="line"/>
      <point x="41" y="714" type="line"/>
    </contour>
    <contour>
      <point x="250" y="798" type="qcurve"/>
      <point x="250" y="815"/>
      <point x="274" y="839"/>
      <point x="290" y="839" type="qcurve"/>
      <point x="305" y="839"/>
      <point x="330" y="815"/>
      <point x="330" y="798" type="qcurve"/>
      <point x="330" y="780"/>
      <point x="305" y="757"/>
      <point x="290" y="757" type="qcurve"/>
      <point x="274" y="757"/>
      <point x="250" y="780"/>
    </contour>
    <contour>
      <point x="429" y="798" type="qcurve"/>
      <point x="429" y="815"/>
      <point x="453" y="839"/>
      <point x="469" y="839" type="qcurve"/>
      <point x="484" y="839"/>
      <point x="509" y="815"/>
      <point x="509" y="798" type="qcurve"/>
      <point x="509" y="780"/>
      <point x="484" y="757"/>
      <point x="469" y="757" type="qcurve"/>
      <point x="453" y="757"/>
      <point x="429" y="780"/>
    </contour>
  </outline>
</glyph>
<glyph name="Thorn" format="1">
  <advance width="572"/>
  <unicode hex="00DE"/>
  <outline>
    <contour>
      <point x="203" y="714" type="line"/>
      <point x="203" y="567" type="line"/>
      <point x="308" y="567" type="line"/>
      <point x="353" y="567"/>
      <point x="437" y="542"/>
      <point x="502" y="490"/>
      <point x="541" y="412"/>
      <point x="541" y="358" type="qcurve"/>
      <point x="541" y="317"/>
      <point x="515" y="238"/>
      <point x="460" y="177"/>
      <point x="372" y="139"/>
      <point x="310" y="139" type="qcurve"/>
      <point x="203" y="139" type="line"/>
      <point x="203" y="0" type="line"/>
      <point x="57" y="0" type="line"/>
      <point x="57" y="60" type="line"/>
      <point x="135" y="60" type="line"/>
      <point x="135" y="654" type="line"/>
      <point x="57" y="654" type="line"/>
      <point x="57" y="714" type="line"/>
    </contour>
    <contour>
      <point x="203" y="204" type="line"/>
      <point x="309" y="204" type="line"/>
      <point x="357" y="204"/>
      <point x="420" y="235"/>
      <point x="458" y="282"/>
      <point x="473" y="335"/>
      <point x="473" y="357" type="qcurve"/>
      <point x="473" y="384"/>
      <point x="452" y="437"/>
      <point x="412" y="478"/>
      <point x="350" y="503"/>
      <point x="310" y="503" type="qcurve"/>
      <point x="203" y="503" type="line"/>
    </contour>
  </outline>
</glyph>
<glyph name="germandbls" format="1">
  <advance width="548"/>
  <unicode hex="00DF"/>
  <outline>
    <contour>
      <point x="200" y="14" type="qcurve"/>
      <point x="224" y="65" type="line"/>
      <point x="255" y="48"/>
      <point x="293" y="48" type="qcurve"/>
      <point x="326" y="48"/>
      <point x="383" y="73"/>
      <point x="426" y="116"/>
      <point x="451" y="173"/>
      <point x="451" y="205" type="qcurve"/>
      <point x="451" y="237"/>
      <point x="426" y="293"/>
      <point x="383" y="335"/>
      <point x="326" y="359"/>
      <point x="294" y="359" type="qcurve"/>
      <point x="293" y="359" type="line"/>
      <point x="293" y="416" type="line"/>
      <point x="335" y="416"/>
      <point x="390" y="465"/>
      <point x="390" y="507" type="qcurve"/>
      <point x="390" y="546"/>
      <point x="335" y="606"/>
      <point x="281" y="606" type="qcurve"/>
      <point x="213" y="606"/>
      <point x="150" y="508"/>
      <point x="150" y="426" type="qcurve"/>
      <point x="150" y="0" type="line"/>
      <point x="92" y="0" type="line"/>
      <point x="92" y="350" type="line"/>
      <point x="27" y="350" type="line"/>
      <point x="27" y="407" type="line"/>
      <point x="92" y="407" type="line"/>
      <point x="92" y="428" type="line"/>
      <point x="92" y="483"/>
      <point x="119" y="570"/>
      <point x="167" y="630"/>
      <point x="234" y="662"/>
      <point x="274" y="663" type="qcurve"/>
      <point x="320" y="663"/>
      <point x="386" y="637"/>
      <point x="428" y="595"/>
      <point x="448" y="541"/>
      <point x="448" y="512" type="qcurve"/>
      <point x="448" y="471"/>
      <point x="410" y="407"/>
      <point x="374" y="393" type="qcurve"/>
      <point x="399" y="387"/>
      <point x="448" y="353"/>
      <point x="486" y="303"/>
      <point x="509" y="240"/>
      <point x="509" y="204" type="qcurve"/>
      <point x="509" y="160"/>
      <point x="475" y="83"/>
      <point x="416" y="25"/>
      <point x="337" y="-9"/>
      <point x="293" y="-9" type="qcurve"/>
      <point x="243" y="-9"/>
    </contour>
  </outline>
</glyph>
<glyph name="aacute" format="1">
  <advance width="553"/>
  <unicode hex="00E1"/>
  <outline>
    <contour>
      <point x="461" y="48" type="line"/>
      <point x="529" y="48" type="line"/>
      <point x="529" y="0" type="line"/>
      <point x="406" y="0" type="line"/>
      <point x="406" y="81" type="line"/>
      <point x="399" y="64"/>
      <point x="371" y="33"/>
      <point x="331" y="7"/>
      <point x="279" y="-8"/>
      <point x="248" y="-8" type="qcurve"/>
      <point x="203" y="-8"/>
      <point x="126" y="25"/>
      <point x="71" y="81"/>
      <point x="39" y="156"/>
      <point x="39" y="198" type="qcurve"/>
      <point x="39" y="241"/>
      <point x="72" y="318"/>
      <point x="129" y="376"/>
      <point x="204" y="409"/>
      <point x="247" y="409" type="qcurve"/>
      <point x="277" y="409"/>
      <point x="330" y="393"/>
      <point x="371" y="366"/>
      <point x="399" y="333"/>
      <point x="406" y="317" type="qcurve"/>
      <point x="406" y="337"/>
      <point x="408" y="379"/>
      <point x="410" y="400" type="qcurve"/>
      <point x="461" y="400" type="line"/>
    </contour>
    <contour>
      <point x="93" y="201" type="qcurve"/>
      <point x="93" y="168"/>
      <point x="117" y="112"/>
      <point x="159" y="70"/>
      <point x="216" y="46"/>
      <point x="249" y="46" type="qcurve"/>
      <point x="282" y="46"/>
      <point x="339" y="70"/>
      <point x="381" y="112"/>
      <point x="405" y="168"/>
      <point x="405" y="201" type="qcurve"/>
      <point x="405" y="233"/>
      <point x="381" y="289"/>
      <point x="339" y="331"/>
      <point x="282" y="355"/>
      <point x="249" y="355" type="qcurve"/>
      <point x="216" y="355"/>
      <point x="159" y="331"/>
      <point x="117" y="290"/>
      <point x="93" y="234"/>
    </contour>
    <contour>
      <point x="212" y="483" type="line"/>
      <point x="303" y="617" type="line"/>
      <point x="362" y="617" type="line"/>
      <point x="336" y="583"/>
      <point x="282" y="516"/>
      <point x="255" y="483" type="qcurve"/>
    </contour>
  </outline>
</glyph>
<glyph name="igrave" format="1">
  <advance width="251"/>
  <unicode hex="00EC"/>
  <outline>
    <contour>
      <point x="230" y="0" type="line"/>
      <point x="34" y="0" type="line"/>
      <point x="34" y="48" type="line"/>
      <point x="102" y="48" type="line"/>
      <point x="102" y="351" type="line"/>
      <point x="34" y="351" type="line"/>
      <point x="34" y="400" type="line"/>
      <point x="157" y="400" type="line"/>
      <point x="157" y="48" type="line"/>
      <point x="230" y="48" type="line"/>
    </contour>
    <contour>
      <point x="98" y="617" type="line"/>
      <point x="121" y="583"/>
      <point x="166" y="516"/>
      <point x="189" y="483" type="qcurve"/>
      <point x="145" y="483" type="line"/>
      <point x="38" y="617" type="line"/>
    </contour>
  </outline>
</glyph>
<glyph name="iacute" format="1">
  <advance width="251"/>
  <unicode hex="00ED"/>
  <outline>
    <contour>
      <point x="230" y="0" type="line"/>
      <point x="34" y="0" type="line"/>
      <point x="34" y="48" type="line"/>
      <point x="102" y="48" type="line"/>
      <point x="102" y="351" type="line"/>
      <point x="34" y="351" type="line"/>
      <point x="34" y="400" type="line"/>
      <point x="157" y="400" type="line"/>
      <point x="157" y="48" type="line"/>
      <point x="230" y="48" type="line"/>
    </contour>
    <contour>
      <point x="73" y="483" type="line"/>
      <point x="164" y="617" type="line"/>
      <point x="223" y="617" type="line"/>
      <point x="197" y="583"/>
      <point x="143" y="516"/>
      <point x="116" y="483" type="qcurve"/>
    </contour>
  </outline>
</glyph>
<glyph name="ograve" format="1">
  <advance width="498"/>
  <unicode hex="00F2"/>
  <outline>
    <contour>
      <point x="39" y="200" type="qcurve"/>
      <point x="39" y="244"/>
      <point x="71" y="321"/>
      <point x="128" y="378"/>
      <point x="205" y="410"/>
      <point x="250" y="410" type="qcurve"/>
      <point x="295" y="410"/>
      <point x="372" y="378"/>
      <point x="427" y="321"/>
      <point x="459" y="244"/>
      <point x="459" y="200" type="qcurve"/>
      <point x="459" y="156"/>
      <point x="427" y="80"/>
      <point x="371" y="24"/>
      <point x="294" y="-8"/>
      <point x="248" y="-8" type="qcurve"/>
      <point x="204" y="-8"/>
      <point x="128" y="23"/>
      <point x="71" y="78"/>
      <point x="39" y="154"/>
    </contour>
    <contour>
      <point x="94" y="200" type="qcurve"/>
      <point x="94" y="167"/>
      <point x="118" y="111"/>
      <point x="159" y="70"/>
      <point x="215" y="46"/>
      <point x="248" y="46" type="qcurve"/>
      <point x="281" y="46"/>
      <point x="337" y="70"/>
      <point x="379" y="111"/>
      <point x="403" y="167"/>
      <point x="403" y="200" type="qcurve"/>
      <point x="403" y="233"/>
      <point x="379" y="289"/>
      <point x="337" y="331"/>
      <point x="281" y="355"/>
      <point x="248" y="355" type="qcurve"/>
      <point x="215" y="355"/>
      <point x="159" y="331"/>
      <point x="118" y="289"/>
      <point x="94" y="233"/>
    </contour>
    <contour>
      <point x="200" y="617" type="line"/>
      <point x="223" y="583"/>
      <point x="268" y="516"/>
      <point x="291" y="483" type="qcurve"/>
      <point x="247" y="483" type="line"/>
      <point x="140" y="617" type="line"/>
    </contour>
  </outline>
</glyph>
<glyph name="ocircumflex" format="1">
  <advance width="498"/>
  <unicode hex="00F4"/>
  <outline>
    <contour>
      <point x="39" y="200" type="qcurve"/>
      <point x="39" y="244"/>
      <point x="71" y="321"/>
      <point x="128" y="378"/>
      <point x="205" y="410"/>
      <point x="250" y="410" type="qcurve"/>
      <point x="295" y="410"/>
      <point x="372" y="378"/>
      <point x="427" y="321"/>
      <point x="459" y="244"/>
      <point x="459" y="200" type="qcurve"/>
      <point x="459" y="156"/>
      <point x="427" y="80"/>
      <point x="371" y="24"/>
      <point x="294" y="-8"/>
      <point x="248" y="-8" type="qcurve"/>
      <point x="204" y="-8"/>
      <point x="128" y="23"/>
      <point x="71" y="78"/>
      <point x="39" y="154"/>
    </contour>
    <contour>
      <point x="94" y="200" type="qcurve"/>
      <point x="94" y="167"/>
      <point x="118" y="111"/>
      <point x="159" y="70"/>
      <point x="215" y="46"/>
      <point x="248" y="46" type="qcurve"/>
      <point x="281" y="46"/>
      <point x="337" y="70"/>
      <point x="379" y="111"/>
      <point x="403" y="167"/>
      <point x="403" y="200" type="qcurve"/>
      <point x="403" y="233"/>
      <point x="379" y="289"/>
      <point x="337" y="331"/>
      <point x="281" y="355"/>
      <point x="248" y="355" type="qcurve"/>
      <point x="215" y="355"/>
      <point x="159" y="331"/>
      <point x="118" y="289"/>
      <point x="94" y="233"/>
    </contour>
    <contour>
      <point x="252" y="617" type="qcurve"/>
      <point x="280" y="586"/>
      <point x="305" y="559" type="qcurve"/>
      <point x="326" y="536"/>
      <point x="365" y="491"/>
      <point x="373" y="483" type="qcurve"/>
      <point x="329" y="483" type="line"/>
      <point x="252" y="553" type="line"/>
      <point x="174" y="483" type="line"/>
      <point x="131" y="483" type="line"/>
      <point x="137" y="491"/>
      <point x="177" y="535"/>
      <point x="198" y="558" type="qcurve"/>
      <point x="223" y="585"/>
    </contour>
  </outline>
</glyph>
<glyph name="oslash" format="1">
  <advance width="499"/>
  <unicode hex="00F8"/>
  <outline>
    <contour>
      <point x="40" y="200" type="qcurve"/>
      <point x="40" y="244"/>
      <point x="72" y="321"/>
      <point x="129" y="378"/>
      <point x="206" y="410"/>
      <point x="251" y="410" type="qcurve"/>
      <point x="283" y="410"/>
      <point x="342" y="392"/>
      <point x="366" y="376" type="qcurve"/>
      <point x="399" y="415" type="line"/>
      <point x="429" y="390" type="line"/>
      <point x="397" y="352" type="line"/>
      <point x="426" y="323"/>
      <point x="460" y="245"/>
      <point x="460" y="200" type="qcurve"/>
      <point x="460" y="156"/>
      <point x="428" y="80"/>
      <point x="372" y="24"/>
      <point x="295" y="-8"/>
      <point x="249" y="-8" type="qcurve"/>
      <point x="175" y="-8"/>
      <point x="121" y="32" type="qcurve"/>
      <point x="109" y="18"/>
      <point x="88" y="-6"/>
      <point x="81" y="-15" type="qcurve"/>
      <point x="53" y="12" type="line"/>
      <point x="93" y="58" type="line"/>
      <point x="68" y="85"/>
      <point x="40" y="157"/>
    </contour>
    <contour>
      <point x="157" y="75" type="qcurve"/>
      <point x="197" y="46"/>
      <point x="249" y="46" type="qcurve"/>
      <point x="282" y="46"/>
      <point x="338" y="70"/>
      <point x="380" y="111"/>
      <point x="404" y="167"/>
      <point x="404" y="200" type="qcurve"/>
      <point x="404" y="232"/>
      <point x="380" y="288"/>
      <point x="360" y="309" type="qcurve"/>
      <point x="337" y="283"/>
      <point x="286" y="223"/>
      <point x="233" y="162"/>
      <point x="180" y="102"/>
    </contour>
    <contour>
      <point x="95" y="200" type="qcurve"/>
      <point x="95" y="171"/>
      <point x="113" y="121"/>
      <point x="129" y="101" type="qcurve"/>
      <point x="152" y="128"/>
      <point x="203" y="187"/>
      <point x="256" y="248"/>
      <point x="307" y="307"/>
      <point x="329" y="333" type="qcurve"/>
      <point x="293" y="355"/>
      <point x="249" y="355" type="qcurve"/>
      <point x="216" y="355"/>
      <point x="160" y="331"/>
      <point x="119" y="289"/>
      <point x="95" y="233"/>
    </contour>
  </outline>
</glyph>
<glyph name="udieresis" format="1">
  <advance width="530"/>
  <unicode hex="00FC"/>
  <outline>
    <contour>
      <point x="383" y="187" type="qcurve"/>
      <point x="383" y="351" type="line"/>
      <point x="311" y="351" type="line"/>
      <point x="311" y="400" type="line"/>
      <point x="438" y="400" type="line"/>
      <point x="438" y="48" type="line"/>
      <point x="506" y="48" type="line"/>
      <point x="506" y="0" type="line"/>
      <point x="393" y="0" type="line"/>
      <point x="387" y="103" type="line"/>
      <point x="365" y="53"/>
      <point x="279" y="-9"/>
      <point x="219" y="-9" type="qcurve"/>
      <point x="159" y="-9"/>
      <point x="90" y="57"/>
      <point x="88" y="111" type="qcurve"/>
      <point x="88" y="351" type="line"/>
      <point x="20" y="351" type="line"/>
      <point x="20" y="400" type="line"/>
      <point x="143" y="400" type="line"/>
      <point x="143" y="130" type="line"/>
      <point x="145" y="96"/>
      <point x="189" y="48"/>
      <point x="233" y="46" type="qcurve"/>
      <point x="264" y="46"/>
      <point x="319" y="67"/>
      <point x="360" y="104"/>
      <point x="383" y="156"/>
    </contour>
    <contour>
      <point x="308" y="517" type="qcurve"/>
      <point x="308" y="534"/>
      <point x="332" y="558"/>
      <point x="348" y="558" type="qcurve"/>
      <point x="363" y="558"/>
      <point x="388" y="534"/>
      <point x="388" y="517" type="qcurve"/>
      <point x="388" y="499"/>
      <point x="363" y="476"/>
      <point x="348" y="476" type="qcurve"/>
      <point x="332" y="476"/>
      <point x="308" y="499"/>
    </contour>
    <contour>
      <point x="129" y="517" type="qcurve"/>
      <point x="129" y="534"/>
      <point x="153" y="558"/>
      <point x="169" y="558" type="qcurve"/>
      <point x="184" y="558"/>
      <point x="209" y="534"/>
      <point x="209" y="517" type="qcurve"/>
      <point x="209" y="499"/>
      <point x="184" y="476"/>
      <point x="169" y="476" type="qcurve"/>
      <point x="153" y="476"/>
      <point x="129" y="499"/>
    </contour>
  </outline>
</glyph>
<glyph name="thorn" format="1">
  <advance width="540"/>
  <unicode hex="00FE"/>
  <outline>
    <contour>
      <point x="9" y="717" type="line"/>
      <point x="9" y="766" type="line"/>
      <point x="132" y="766" type="line"/>
      <point x="132" y="763"/>
      <point x="132" y="698"/>
      <point x="132" y="602"/>
      <point x="133" y="489"/>
      <point x="133" y="391"/>
      <point x="133" y="321"/>
      <point x="133" y="316" type="qcurve"/>
      <point x="151" y="353"/>
      <point x="235" y="409"/>
      <point x="294" y="409" type="qcurve"/>
      <point x="338" y="409"/>
      <point x="414" y="378"/>
      <point x="469" y="323"/>
      <point x="500" y="246"/>
      <point x="500" y="200" type="qcurve"/>
      <point x="500" y="156"/>
      <point x="468" y="80"/>
      <point x="413" y="24"/>
      <point x="336" y="-8"/>
      <point x="291" y="-8" type="qcurve"/>
      <point x="235" y="-8"/>
      <point x="149" y="44"/>
      <point x="132" y="82" type="qcurve"/>
      <point x="132" y="-144" type="line"/>
      <point x="205" y="-144" type="line"/>
      <point x="205" y="-193" type="line"/>
      <point x="9" y="-193" type="line"/>
      <point x="9" y="-144" type="line"/>
      <point x="77" y="-144" type="line"/>
      <point x="77" y="717" type="line"/>
    </contour>
    <contour>
      <point x="440" y="200" type="qcurve"/>
      <point x="440" y="233"/>
      <point x="418" y="290"/>
      <point x="378" y="331"/>
      <point x="322" y="355"/>
      <point x="289" y="355" type="qcurve"/>
      <point x="256" y="355"/>
      <point x="199" y="331"/>
      <point x="157" y="290"/>
      <point x="133" y="234"/>
      <point x="133" y="201" type="qcurve"/>
      <point x="133" y="168"/>
      <point x="157" y="112"/>
      <point x="199" y="70"/>
      <point x="256" y="46"/>
      <point x="289" y="46" type="qcurve"/>
      <point x="322" y="46"/>
      <point x="378" y="70"/>
      <point x="418" y="112"/>
      <point x="440" y="168"/>
    </contour>
  </outline>
</glyph>
<glyph name="Abreve" format="1">
  <advance width="736"/>
  <unicode hex="0102"/>
  <outline>
    <contour>
      <point x="4" y="60" type="line"/>
      <point x="4" y="0" type="line"/>
      <point x="232" y="0" type="line"/>
      <point x="232" y="60" type="line"/>
      <point x="152" y="60" type="line"/>
      <point x="230" y="255" type="line"/>
      <point x="505" y="255" type="line"/>
      <point x="584" y="60" type="line"/>
      <point x="506" y="60" type="line"/>
      <point x="506" y="0" type="line"/>
      <point x="734" y="0" type="line"/>
      <point x="734" y="60" type="line"/>
      <point x="652" y="60" type="line"/>
      <point x="368" y="747" type="line"/>
      <point x="84" y="60" type="line"/>
    </contour>
    <contour>
      <point x="358" y="572" type="line"/>
      <point x="360" y="578"/>
      <point x="362" y="583" type="qcurve"/>
      <point x="364" y="588"/>
      <point x="366" y="598"/>
      <point x="368" y="603" type="qcurve"/>
      <point x="369" y="598"/>
      <point x="372" y="588"/>
      <point x="374" y="583" type="qcurve"/>
      <point x="376" y="578"/>
      <point x="378" y="572" type="qcurve"/>
      <point x="481" y="314" type="line"/>
      <point x="254" y="314" type="line"/>
    </contour>
    <contour>
      <point x="370" y="755" type="qcurve"/>
      <point x="337" y="755"/>
      <point x="278" y="779"/>
      <point x="234" y="821"/>
      <point x="208" y="879"/>
      <point x="207" y="912" type="qcurve"/>
      <point x="241" y="912" type="line"/>
      <point x="242" y="886"/>
      <point x="262" y="842"/>
      <point x="296" y="808"/>
      <point x="343" y="789"/>
      <point x="370" y="789" type="qcurve"/>
      <point x="426" y="789"/>
      <point x="494" y="861"/>
      <point x="496" y="912" type="qcurve"/>
      <point x="531" y="912" type="line"/>
      <point x="531" y="879"/>
      <point x="505" y="821"/>
      <point x="461" y="779"/>
      <point x="403" y="755"/>
    </contour>
  </outline>
</glyph>
<glyph name="aogonek" format="1">
  <advance width="552"/>
  <unicode hex="0105"/>
  <outline>
    <contour>
      <point x="461" y="48" type="line"/>
      <point x="529" y="48" type="line"/>
      <point x="529" y="0" type="line"/>
      <point x="406" y="0" type="line"/>
      <point x="406" y="81" type="line"/>
      <point x="399" y="64"/>
      <point x="371" y="33"/>
      <point x="331" y="7"/>
      <point x="279" y="-8"/>
      <point x="248" y="-8" type="qcurve"/>
      <point x="203" y="-8"/>
      <point x="126" y="25"/>
      <point x="71" y="81"/>
      <point x="39" y="156"/>
      <point x="39" y="198" type="qcurve"/>
      <point x="39" y="241"/>
      <point x="72" y="318"/>
      <point x="129" y="376"/>
      <point x="204" y="409"/>
      <point x="247" y="409" type="qcurve"/>
      <point x="277" y="409"/>
      <point x="330" y="393"/>
      <point x="371" y="366"/>
      <point x="399" y="333"/>
      <point x="406" y="317" type="qcurve"/>
      <point x="406" y="337"/>
      <point x="408" y="379"/>
      <point x="410" y="400" type="qcurve"/>
      <point x="461" y="400" type="line"/>
    </contour>
    <contour>
      <point x="93" y="201" type="qcurve"/>
      <point x="93" y="168"/>
      <point x="117" y="112"/>
      <point x="159" y="70"/>
      <point x="216" y="46"/>
      <point x="249" y="46" type="qcurve"/>
      <point x="282" y="46"/>
      <point x="339" y="70"/>
      <point x="381" y="112"/>
      <point x="405" y="168"/>
      <point x="405" y="201" type="qcurve"/>
      <point x="405" y="233"/>
      <point x="381" y="289"/>
      <point x="339" y="331"/>
      <point x="282" y="355"/>
      <point x="249" y="355" type="qcurve"/>
      <point x="216" y="355"/>
      <point x="159" y="331"/>
      <point x="117" y="290"/>
      <point x="93" y="234"/>
    </contour>
    <contour>
      <point x="441" y="0" type="line"/>
      <point x="403" y="0" type="line"/>
      <point x="403" y="-7" type="line"/>
      <point x="403" y="-21"/>
      <point x="395" y="-38"/>
      <point x="382" y="-49"/>
      <point x="367" y="-57"/>
      <point x="361" y="-61" type="qcurve"/>
      <point x="339" y="-77"/>
      <point x="321" y="-117"/>
      <point x="321" y="-138" type="qcurve"/>
      <point x="321" y="-184"/>
      <point x="374" y="-242"/>
      <point x="419" y="-242" type="qcurve"/>
      <point x="451" y="-242"/>
      <point x="504" y="-208"/>
      <point x="515" y="-173" type="qcurve"/>
      <point x="496" y="-163"/>
      <point x="480" y="-156" type="qcurve"/>
      <point x="475" y="-174"/>
      <point x="445" y="-197"/>
      <point x="424" y="-197" type="qcurve"/>
      <point x="397" y="-197"/>
      <point x="366" y="-161"/>
      <point x="366" y="-135" type="qcurve"/>
      <point x="366" y="-112"/>
      <point x="389" y="-86"/>
      <point x="418" y="-67"/>
      <point x="441" y="-46"/>
      <point x="441" y="-28" type="qcurve"/>
    </contour>
  </outline>
</glyph>
<glyph name="Ccircumflex" format="1">
  <advance width="656"/>
  <unicode hex="0108"/>
  <outline>
    <contour>
      <point x="543" y="562" type="line"/>
      <point x="543" y="635" type="line"/>
      <point x="514" y="646"/>
      <point x="449" y="658"/>
      <point x="420" y="658" type="qcurve"/>
      <point x="357" y="658"/>
      <point x="247" y="610"/>
      <point x="166" y="527"/>
      <point x="119" y="418"/>
      <point x="119" y="357" type="qcurve"/>
      <point x="119" y="299"/>
      <point x="161" y="192"/>
      <point x="239" y="111"/>
      <point x="348" y="62"/>
      <point x="414" y="62" type="qcurve"/>
      <point x="442" y="62"/>
      <point x="496" y="72"/>
      <point x="542" y="86"/>
      <point x="577" y="103"/>
      <point x="587" y="110" type="qcurve"/>
      <point x="618" y="48" type="line"/>
      <point x="586" y="28"/>
      <point x="480" y="-8"/>
      <point x="411" y="-8" type="qcurve"/>
      <point x="328" y="-8"/>
      <point x="195" y="50"/>
      <point x="101" y="149"/>
      <point x="50" y="279"/>
      <point x="50" y="352" type="qcurve"/>
      <point x="50" y="431"/>
      <point x="108" y="567"/>
      <point x="208" y="666"/>
      <point x="341" y="722"/>
      <point x="415" y="722" type="qcurve"/>
      <point x="474" y="722"/>
      <point x="578" y="692"/>
      <point x="607" y="672" type="qcurve"/>
      <point x="607" y="562" type="line"/>
    </contour>
    <contour>
      <point x="417" y="891" type="qcurve"/>
      <point x="445" y="860"/>
      <point x="470" y="833" type="qcurve"/>
      <point x="491" y="810"/>
      <point x="530" y="765"/>
      <point x="538" y="757" type="qcurve"/>
      <point x="494" y="757" type="line"/>
      <point x="417" y="827" type="line"/>
      <point x="339" y="757" type="line"/>
      <point x="296" y="757" type="line"/>
      <point x="302" y="765"/>
      <point x="342" y="809"/>
      <point x="363" y="832" type="qcurve"/>
      <point x="388" y="859"/>
    </contour>
  </outline>
</glyph>
<glyph name="ccircumflex" format="1">
  <advance width="417"/>
  <unicode hex="0109"/>
  <outline>
    <contour>
      <point x="383" y="364" type="qcurve"/>
      <point x="383" y="292" type="line"/>
      <point x="336" y="292" type="line"/>
      <point x="336" y="331" type="line"/>
      <point x="298" y="355"/>
      <point x="250" y="355" type="qcurve"/>
      <point x="217" y="355"/>
      <point x="160" y="331"/>
      <point x="118" y="290"/>
      <point x="94" y="234"/>
      <point x="94" y="201" type="qcurve"/>
      <point x="94" y="168"/>
      <point x="118" y="112"/>
      <point x="160" y="70"/>
      <point x="217" y="46"/>
      <point x="250" y="46" type="qcurve"/>
      <point x="279" y="46"/>
      <point x="332" y="63"/>
      <point x="352" y="79" type="qcurve"/>
      <point x="386" y="38" type="line"/>
      <point x="358" y="16"/>
      <point x="288" y="-8"/>
      <point x="248" y="-8" type="qcurve"/>
      <point x="202" y="-8"/>
      <point x="125" y="25"/>
      <point x="70" y="81"/>
      <point x="39" y="157"/>
      <point x="39" y="199" type="qcurve"/>
      <point x="39" y="243"/>
      <point x="72" y="320"/>
      <point x="129" y="377"/>
      <point x="206" y="409"/>
      <point x="250" y="409" type="qcurve"/>
      <point x="327" y="409"/>
    </contour>
    <contour>
      <point x="243" y="664" type="line"/>
      <point x="273" y="619"/>
      <point x="333" y="527"/>
      <point x="364" y="482" type="qcurve"/>
      <point x="320" y="482" type="line"/>
      <point x="312" y="494"/>
      <point x="292" y="522"/>
      <point x="271" y="552"/>
      <point x="251" y="581"/>
      <point x="243" y="592" type="qcurve"/>
      <point x="235" y="581"/>
      <point x="215" y="552"/>
      <point x="193" y="522"/>
      <point x="173" y="494"/>
      <point x="165" y="482" type="qcurve"/>
      <point x="122" y="482" type="line"/>
    </contour>
  </outline>
</glyph>
<glyph name="Ccaron" format="1">
  <advance width="656"/>
  <unicode hex="010C"/>
  <outline>
    <contour>
      <point x="543" y="562" type="line"/>
      <point x="543" y="635" type="line"/>
      <point x="514" y="646"/>
      <point x="449" y="658"/>
      <point x="420" y="658" type="qcurve"/>
      <point x="357" y="658"/>
      <point x="247" y="610"/>
      <point x="166" y="527"/>
      <point x="119" y="418"/>
      <point x="119" y="357" type="qcurve"/>
      <point x="119" y="299"/>
      <point x="161" y="192"/>
      <point x="239" y="111"/>
      <point x="348" y="62"/>
      <point x="414" y="62" type="qcurve"/>
      <point x="442" y="62"/>
      <point x="496" y="72"/>
      <point x="542" y="86"/>
      <point x="577" y="103"/>
      <point x="587" y="110" type="qcurve"/>
      <point x="618" y="48" type="line"/>
      <point x="586" y="28"/>
      <point x="480" y="-8"/>
      <point x="411" y="-8" type="qcurve"/>
      <point x="328" y="-8"/>
      <point x="195" y="50"/>
      <point x="101" y="149"/>
      <point x="50" y="279"/>
      <point x="50" y="352" type="qcurve"/>
      <point x="50" y="431"/>
      <point x="108" y="567"/>
      <point x="208" y="666"/>
      <point x="341" y="722"/>
      <point x="415" y="722" type="qcurve"/>
      <point x="474" y="722"/>
      <point x="578" y="692"/>
      <point x="607" y="672" type="qcurve"/>
      <point x="607" y="562" type="line"/>
    </contour>
    <contour>
      <point x="408" y="761" type="qcurve"/>
      <point x="379" y="793"/>
      <point x="354" y="820" type="qcurve"/>
      <point x="333" y="843"/>
      <point x="293" y="887"/>
      <point x="287" y="895" type="qcurve"/>
      <point x="330" y="895" type="line"/>
      <point x="408" y="825" type="line"/>
      <point x="485" y="895" type="line"/>
      <point x="529" y="895" type="line"/>
      <point x="521" y="886"/>
      <point x="482" y="842"/>
      <point x="461" y="819" type="qcurve"/>
      <point x="436" y="792"/>
    </contour>
  </outline>
</glyph>
<glyph name="ccaron" format="1">
  <advance width="417"/>
  <unicode hex="010D"/>
  <outline>
    <contour>
      <point x="383" y="364" type="qcurve"/>
      <point x="383" y="292" type="line"/>
      <point x="336" y="292" type="line"/>
      <point x="336" y="331" type="line"/>
      <point x="298" y="355"/>
      <point x="250" y="355" type="qcurve"/>
      <point x="217" y="355"/>
      <point x="160" y="331"/>
      <point x="118" y="290"/>
      <point x="94" y="234"/>
      <point x="94" y="201" type="qcurve"/>
      <point x="94" y="168"/>
      <point x="118" y="112"/>
      <point x="160" y="70"/>
      <point x="217" y="46"/>
      <point x="250" y="46" type="qcurve"/>
      <point x="279" y="46"/>
      <point x="332" y="63"/>
      <point x="352" y="79" type="qcurve"/>
      <point x="386" y="38" type="line"/>
      <point x="358" y="16"/>
      <point x="288" y="-8"/>
      <point x="248" y="-8" type="qcurve"/>
      <point x="202" y="-8"/>
      <point x="125" y="25"/>
      <point x="70" y="81"/>
      <point x="39" y="157"/>
      <point x="39" y="199" type="qcurve"/>
      <point x="39" y="243"/>
      <point x="72" y="320"/>
      <point x="129" y="377"/>
      <point x="206" y="409"/>
      <point x="250" y="409" type="qcurve"/>
      <point x="327" y="409"/>
    </contour>
    <contour>
      <point x="244" y="483" type="qcurve"/>
      <point x="215" y="515"/>
      <point x="190" y="542" type="qcurve"/>
      <point x="169" y="565"/>
      <point x="129" y="609"/>
      <point x="123" y="617" type="qcurve"/>
      <point x="166" y="617" type="line"/>
      <point x="244" y="547" type="line"/>
      <point x="321" y="617" type="line"/>
      <point x="365" y="617" type="line"/>
      <point x="357" y="608"/>
      <point x="318" y="564"/>
      <point x="297" y="541" type="qcurve"/>
      <point x="272" y="514"/>
    </contour>
  </outline>
</glyph>
<glyph name="Edotaccent" format="1">
  <advance width="648"/>
  <unicode hex="0116"/>
  <outline>
    <contour>
      <point x="520" y="580" type="line"/>
      <point x="520" y="652" type="line"/>
      <point x="203" y="652" type="line"/>
      <point x="203" y="391" type="line"/>
      <point x="545" y="391" type="line"/>
      <point x="545" y="327" type="line"/>
      <point x="203" y="327" type="line"/>
      <point x="203" y="64" type="line"/>
      <point x="534" y="64" type="line"/>
      <point x="534" y="140" type="line"/>
      <point x="598" y="140" type="line"/>
      <point x="598" y="0" type="line"/>
      <point x="57" y="0" type="line"/>
      <point x="57" y="60" type="line"/>
      <point x="135" y="60" type="line"/>
      <point x="135" y="654" type="line"/>
      <point x="57" y="654" type="line"/>
      <point x="57" y="714" type="line"/>
      <point x="584" y="714" type="line"/>
      <point x="584" y="580" type="line"/>
    </contour>
    <contour>
      <point x="300" y="798" type="qcurve"/>
      <point x="300" y="815"/>
      <point x="325" y="838"/>
      <point x="340" y="838" type="qcurve"/>
      <point x="355" y="838"/>
      <point x="379" y="815"/>
      <point x="379" y="798" type="qcurve"/>
      <point x="379" y="780"/>
      <point x="355" y="758"/>
      <point x="340" y="758" type="qcurve"/>
      <point x="325" y="758"/>
      <point x="300" y="780"/>
    </contour>
  </outline>
</glyph>
<glyph name="Ecaron" format="1">
  <advance width="648"/>
  <unicode hex="011A"/>
  <outline>
    <contour>
      <point x="520" y="580" type="line"/>
      <point x="520" y="652" type="line"/>
      <point x="203" y="652" type="line"/>
      <point x="203" y="391" type="line"/>
      <point x="545" y="391" type="line"/>
      <point x="545" y="327" type="line"/>
      <point x="203" y="327" type="line"/>
      <point x="203" y="64" type="line"/>
      <point x="534" y="64" type="line"/>
      <point x="534" y="140" type="line"/>
      <point x="598" y="140" type="line"/>
      <point x="598" y="0" type="line"/>
      <point x="57" y="0" type="line"/>
      <point x="57" y="60" type="line"/>
      <point x="135" y="60" type="line"/>
      <point x="135" y="654" type="line"/>
      <point x="57" y="654" type="line"/>
      <point x="57" y="714" type="line"/>
      <point x="584" y="714" type="line"/>
      <point x="584" y="580" type="line"/>
    </contour>
    <contour>
      <point x="347" y="757" type="qcurve"/>
      <point x="318" y="789"/>
      <point x="293" y="816" type="qcurve"/>
      <point x="272" y="839"/>
      <point x="232" y="883"/>
      <point x="226" y="891" type="qcurve"/>
      <point x="269" y="891" type="line"/>
      <point x="347" y="821" type="line"/>
      <point x="424" y="891" type="line"/>
      <point x="468" y="891" type="line"/>
      <point x="460" y="882"/>
      <point x="421" y="838"/>
      <point x="400" y="815" type="qcurve"/>
      <point x="375" y="788"/>
    </contour>
  </outline>
</glyph>
<glyph name="Hcircumflex" format="1">
  <advance width="813"/>
  <unicode hex="0124"/>
  <outline>
    <contour>
      <point x="285" y="714" type="line"/>
      <point x="285" y="654" type="line"/>
      <point x="204" y="654" type="line"/>
      <point x="204" y="392" type="line"/>
      <point x="610" y="392" type="line"/>
      <point x="610" y="654" type="line"/>
      <point x="528" y="654" type="line"/>
      <point x="528" y="714" type="line"/>
      <point x="756" y="714" type="line"/>
      <point x="756" y="654" type="line"/>
      <point x="678" y="654" type="line"/>
      <point x="678" y="60" type="line"/>
      <point x="756" y="60" type="line"/>
      <point x="756" y="0" type="line"/>
      <point x="528" y="0" type="line"/>
      <point x="528" y="60" type="line"/>
      <point x="610" y="60" type="line"/>
      <point x="610" y="327" type="line"/>
      <point x="204" y="327" type="line"/>
      <point x="204" y="60" type="line"/>
      <point x="285" y="60" type="line"/>
      <point x="285" y="0" type="line"/>
      <point x="57" y="0" type="line"/>
      <point x="57" y="60" type="line"/>
      <point x="135" y="60" type="line"/>
      <point x="135" y="654" type="line"/>
      <point x="57" y="654" type="line"/>
      <point x="57" y="714" type="line"/>
    </contour>
    <contour>
      <point x="410" y="889" type="qcurve"/>
      <point x="438" y="858"/>
      <point x="463" y="831" type="qcurve"/>
      <point x="484" y="808"/>
      <point x="523" y="763"/>
      <point x="531" y="755" type="qcurve"/>
      <point x="487" y="755" type="line"/>
      <point x="410" y="825" type="line"/>
      <point x="332" y="755" type="line"/>
      <point x="289" y="755" type="line"/>
      <point x="295" y="763"/>
      <point x="335" y="807"/>
      <point x="356" y="830" type="qcurve"/>
      <point x="381" y="857"/>
    </contour>
  </outline>
</glyph>
<glyph name="hcircumflex" format="1">
  <advance width="531"/>
  <unicode hex="0125"/>
  <outline>
    <contour>
      <point x="442" y="289" type="qcurve"/>
      <point x="442" y="48" type="line"/>
      <point x="510" y="48" type="line"/>
      <point x="510" y="0" type="line"/>
      <point x="316" y="0" type="line"/>
      <point x="316" y="48" type="line"/>
      <point x="387" y="48" type="line"/>
      <point x="387" y="270" type="line"/>
      <point x="385" y="304"/>
      <point x="341" y="352"/>
      <point x="298" y="354" type="qcurve"/>
      <point x="266" y="354"/>
      <point x="211" y="333"/>
      <point x="171" y="295"/>
      <point x="147" y="243"/>
      <point x="147" y="212" type="qcurve"/>
      <point x="147" y="48" type="line"/>
      <point x="220" y="48" type="line"/>
      <point x="220" y="0" type="line"/>
      <point x="24" y="0" type="line"/>
      <point x="24" y="48" type="line"/>
      <point x="92" y="48" type="line"/>
      <point x="92" y="717" type="line"/>
      <point x="25" y="717" type="line"/>
      <point x="25" y="766" type="line"/>
      <point x="144" y="766" type="line"/>
      <point x="144" y="297" type="line"/>
      <point x="166" y="347"/>
      <point x="252" y="409"/>
      <point x="312" y="409" type="qcurve"/>
      <point x="371" y="409"/>
      <point x="440" y="343"/>
    </contour>
    <contour>
      <point x="276" y="942" type="line"/>
      <point x="306" y="897"/>
      <point x="366" y="805"/>
      <point x="397" y="760" type="qcurve"/>
      <point x="353" y="760" type="line"/>
      <point x="345" y="772"/>
      <point x="325" y="800"/>
      <point x="304" y="830"/>
      <point x="284" y="859"/>
      <point x="276" y="870" type="qcurve"/>
      <point x="268" y="859"/>
      <point x="248" y="830"/>
      <point x="226" y="800"/>
      <point x="206" y="772"/>
      <point x="198" y="760" type="qcurve"/>
      <point x="155" y="760" type="line"/>
    </contour>
  </outline>
</glyph>
<glyph name="Hbar" format="1">
  <advance width="815"/>
  <unicode hex="0126"/>
  <outline>
    <contour>
      <point x="286" y="714" type="line"/>
      <point x="286" y="654" type="line"/>
      <point x="205" y="654" type="line"/>
      <point x="205" y="530" type="line"/>
      <point x="611" y="530" type="line"/>
      <point x="611" y="654" type="line"/>
      <point x="529" y="654" type="line"/>
      <point x="529" y="714" type="line"/>
      <point x="757" y="714" type="line"/>
      <point x="757" y="654" type="line"/>
      <point x="679" y="654" type="line"/>
      <point x="679" y="530" type="line"/>
      <point x="749" y="530" type="line"/>
      <point x="749" y="491" type="line"/>
      <point x="679" y="491" type="line"/>
      <point x="679" y="60" type="line"/>
      <point x="757" y="60" type="line"/>
      <point x="757" y="0" type="line"/>
      <point x="529" y="0" type="line"/>
      <point x="529" y="60" type="line"/>
      <point x="611" y="60" type="line"/>
      <point x="611" y="327" type="line"/>
      <point x="205" y="327" type="line"/>
      <point x="205" y="60" type="line"/>
      <point x="286" y="60" type="line"/>
      <point x="286" y="0" type="line"/>
      <point x="58" y="0" type="line"/>
      <point x="58" y="60" type="line"/>
      <point x="136" y="60" type="line"/>
      <point x="136" y="491" type="line"/>
      <point x="49" y="491" type="line"/>
      <point x="49" y="530" type="line"/>
      <point x="136" y="530" type="line"/>
      <point x="136" y="654" type="line"/>
      <point x="58" y="654" type="line"/>
      <point x="58" y="714" type="line"/>
    </contour>
    <contour>
      <point x="611" y="392" type="line"/>
      <point x="611" y="491" type="line"/>
      <point x="205" y="491" type="line"/>
      <point x="205" y="392" type="line"/>
    </contour>
  </outline>
</glyph>
<glyph name="itilde" format="1">
  <advance width="252"/>
  <unicode hex="0129"/>
  <outline>
    <contour>
      <point x="230" y="0" type="line"/>
      <point x="34" y="0" type="line"/>
      <point x="34" y="48" type="line"/>
      <point x="102" y="48" type="line"/>
      <point x="102" y="351" type="line"/>
      <point x="34" y="351" type="line"/>
      <point x="34" y="400" type="line"/>
      <point x="157" y="400" type="line"/>
      <point x="157" y="48" type="line"/>
      <point x="230" y="48" type="line"/>
    </contour>
    <contour>
      <point x="120" y="502" type="qcurve"/>
      <point x="104" y="519"/>
      <point x="81" y="530"/>
      <point x="67" y="530" type="qcurve"/>
      <point x="59" y="530"/>
      <point x="41" y="526"/>
      <point x="23" y="515"/>
      <point x="10" y="495"/>
      <point x="8" y="480" type="qcurve"/>
      <point x="-25" y="482" type="line"/>
      <point x="-24" y="502"/>
      <point x="-7" y="532"/>
      <point x="18" y="553"/>
      <point x="48" y="563"/>
      <point x="63" y="563" type="qcurve"/>
      <point x="86" y="563"/>
      <point x="122" y="545"/>
      <point x="138" y="528" type="qcurve"/>
      <point x="154" y="511"/>
      <point x="177" y="500"/>
      <point x="191" y="500" type="qcurve"/>
      <point x="198" y="500"/>
      <point x="217" y="504"/>
      <point x="235" y="515"/>
      <point x="248" y="535"/>
      <point x="250" y="550" type="qcurve"/>
      <point x="283" y="548" type="line"/>
      <point x="282" y="528"/>
      <point x="265" y="498"/>
      <point x="240" y="477"/>
      <point x="210" y="467"/>
      <point x="195" y="467" type="qcurve"/>
      <point x="172" y="467"/>
      <point x="136" y="486"/>
    </contour>
  </outline>
</glyph>
<glyph name="iogonek" format="1">
  <advance width="251"/>
  <unicode hex="012F"/>
  <outline>
    <contour>
      <point x="157" y="48" type="line"/>
      <point x="230" y="48" type="line"/>
      <point x="230" y="0" type="line"/>
      <point x="34" y="0" type="line"/>
      <point x="34" y="48" type="line"/>
      <point x="102" y="48" type="line"/>
      <point x="102" y="351" type="line"/>
      <point x="34" y="351" type="line"/>
      <point x="34" y="400" type="line"/>
      <point x="157" y="400" type="line"/>
    </contour>
    <contour>
      <point x="141" y="0" type="line"/>
      <point x="103" y="0" type="line"/>
      <point x="103" y="-7" type="line"/>
      <point x="103" y="-21"/>
      <point x="95" y="-38"/>
      <point x="82" y="-49"/>
      <point x="67" y="-57"/>
      <point x="61" y="-61" type="qcurve"/>
      <point x="39" y="-77"/>
      <point x="21" y="-117"/>
      <point x="21" y="-138" type="qcurve"/>
      <point x="21" y="-184"/>
      <point x="74" y="-242"/>
      <point x="119" y="-242" type="qcurve"/>
      <point x="151" y="-242"/>
      <point x="204" y="-208"/>
      <point x="215" y="-173" type="qcurve"/>
      <point x="196" y="-163"/>
      <point x="180" y="-156" type="qcurve"/>
      <point x="175" y="-174"/>
      <point x="145" y="-197"/>
      <point x="124" y="-197" type="qcurve"/>
      <point x="97" y="-197"/>
      <point x="66" y="-161"/>
      <point x="66" y="-135" type="qcurve"/>
      <point x="66" y="-112"/>
      <point x="89" y="-86"/>
      <point x="118" y="-67"/>
      <point x="141" y="-46"/>
      <point x="141" y="-28" type="qcurve"/>
    </contour>
    <contour>
      <point x="91" y="545" type="qcurve"/>
      <point x="91" y="562"/>
      <point x="115" y="585"/>
      <point x="131" y="585" type="qcurve"/>
      <point x="145" y="585"/>
      <point x="170" y="562"/>
      <point x="170" y="545" type="qcurve"/>
      <point x="170" y="527"/>
      <point x="145" y="505"/>
      <point x="131" y="505" type="qcurve"/>
      <point x="115" y="505"/>
      <point x="91" y="527"/>
    </contour>
  </outline>
</glyph>
<glyph name="dotlessi" format="1">
  <advance width="251"/>
  <unicode hex="0131"/>
  <outline>
    <contour>
      <point x="230" y="0" type="line"/>
      <point x="34" y="0" type="line"/>
      <point x="34" y="48" type="line"/>
      <point x="102" y="48" type="line"/>
      <point x="102" y="351" type="line"/>
      <point x="34" y="351" type="line"/>
      <point x="34" y="400" type="line"/>
      <point x="157" y="400" type="line"/>
      <point x="157" y="48" type="line"/>
      <point x="230" y="48" type="line"/>
    </contour>
  </outline>
</glyph>
<glyph name="jcircumflex" format="1">
  <advance width="214"/>
  <unicode hex="0135"/>
  <outline>
    <contour>
      <point x="63" y="-192" type="qcurve"/>
      <point x="24" y="-152" type="line"/>
      <point x="51" y="-126"/>
      <point x="82" y="-53"/>
      <point x="82" y="-3" type="qcurve"/>
      <point x="82" y="351" type="line"/>
      <point x="14" y="351" type="line"/>
      <point x="14" y="400" type="line"/>
      <point x="137" y="400" type="line"/>
      <point x="137" y="-3" type="line"/>
      <point x="137" y="-66"/>
      <point x="98" y="-161"/>
    </contour>
    <contour>
      <point x="97" y="664" type="line"/>
      <point x="127" y="619"/>
      <point x="187" y="527"/>
      <point x="218" y="482" type="qcurve"/>
      <point x="174" y="482" type="line"/>
      <point x="166" y="494"/>
      <point x="146" y="522"/>
      <point x="125" y="552"/>
      <point x="105" y="581"/>
      <point x="97" y="592" type="qcurve"/>
      <point x="89" y="581"/>
      <point x="69" y="552"/>
      <point x="47" y="522"/>
      <point x="27" y="494"/>
      <point x="19" y="482" type="qcurve"/>
      <point x="-24" y="482" type="line"/>
    </contour>
  </outline>
</glyph>
<glyph name="uni0137" format="1">
  <advance width="470"/>
  <unicode hex="0137"/>
  <outline>
    <contour>
      <point x="147" y="142" type="line"/>
      <point x="147" y="48" type="line"/>
      <point x="220" y="48" type="line"/>
      <point x="220" y="0" type="line"/>
      <point x="24" y="0" type="line"/>
      <point x="24" y="48" type="line"/>
      <point x="92" y="48" type="line"/>
      <point x="92" y="717" type="line"/>
      <point x="24" y="717" type="line"/>
      <point x="24" y="766" type="line"/>
      <point x="147" y="766" type="line"/>
      <point x="147" y="208" type="line"/>
      <point x="321" y="370" type="line"/>
      <point x="270" y="370" type="line"/>
      <point x="270" y="406" type="line"/>
      <point x="435" y="406" type="line"/>
      <point x="435" y="370" type="line"/>
      <point x="389" y="370" type="line"/>
      <point x="251" y="239" type="line"/>
      <point x="389" y="48" type="line"/>
      <point x="456" y="48" type="line"/>
      <point x="456" y="0" type="line"/>
      <point x="361" y="0" type="line"/>
      <point x="212" y="202" type="line"/>
    </contour>
    <contour>
      <point x="301" y="-21" type="line"/>
      <point x="290" y="-47"/>
      <point x="276" y="-81"/>
      <point x="262" y="-111"/>
      <point x="248" y="-145"/>
      <point x="237" y="-171" type="qcurve"/>
      <point x="188" y="-171" type="line"/>
      <point x="198" y="-145"/>
      <point x="210" y="-111"/>
      <point x="221" y="-81"/>
      <point x="233" y="-47"/>
      <point x="243" y="-21" type="qcurve"/>
    </contour>
  </outline>
</glyph>
<glyph name="Lacute" format="1">
  <advance width="610"/>
  <unicode hex="0139"/>
  <outline>
    <contour>
      <point x="285" y="714" type="line"/>
      <point x="285" y="654" type="line"/>
      <point x="203" y="654" type="line"/>
      <point x="203" y="65" type="line"/>
      <point x="524" y="65" type="line"/>
      <point x="524" y="140" type="line"/>
      <point x="588" y="140" type="line"/>
      <point x="588" y="33" type="line"/>
      <point x="582" y="33" type="line"/>
      <point x="582" y="0" type="line"/>
      <point x="57" y="0" type="line"/>
      <point x="57" y="60" type="line"/>
      <point x="135" y="60" type="line"/>
      <point x="135" y="654" type="line"/>
      <point x="57" y="654" type="line"/>
      <point x="57" y="714" type="line"/>
    </contour>
    <contour>
      <point x="288" y="760" type="line"/>
      <point x="379" y="894" type="line"/>
      <point x="438" y="894" type="line"/>
      <point x="412" y="860"/>
      <point x="358" y="793"/>
      <point x="331" y="760" type="qcurve"/>
    </contour>
  </outline>
</glyph>
<glyph name="lacute" format="1">
  <advance width="242"/>
  <unicode hex="013A"/>
  <outline>
    <contour>
      <point x="148" y="766" type="line"/>
      <point x="148" y="48" type="line"/>
      <point x="221" y="48" type="line"/>
      <point x="221" y="0" type="line"/>
      <point x="25" y="0" type="line"/>
      <point x="25" y="48" type="line"/>
      <point x="93" y="48" type="line"/>
      <point x="93" y="717" type="line"/>
      <point x="25" y="717" type="line"/>
      <point x="25" y="766" type="line"/>
    </contour>
    <contour>
      <point x="76" y="784" type="line"/>
      <point x="167" y="918" type="line"/>
      <point x="226" y="918" type="line"/>
      <point x="200" y="884"/>
      <point x="146" y="817"/>
      <point x="119" y="784" type="qcurve"/>
    </contour>
  </outline>
</glyph>
<glyph name="uni013C" format="1">
  <advance width="242"/>
  <unicode hex="013C"/>
  <outline>
    <contour>
      <point x="148" y="766" type="line"/>
      <point x="148" y="48" type="line"/>
      <point x="221" y="48" type="line"/>
      <point x="221" y="0" type="line"/>
      <point x="25" y="0" type="line"/>
      <point x="25" y="48" type="line"/>
      <point x="93" y="48" type="line"/>
      <point x="93" y="717" type="line"/>
      <point x="25" y="717" type="line"/>
      <point x="25" y="766" type="line"/>
    </contour>
    <contour>
      <point x="143" y="-21" type="line"/>
      <point x="132" y="-47"/>
      <point x="118" y="-81"/>
      <point x="104" y="-111"/>
      <point x="90" y="-145"/>
      <point x="79" y="-171" type="qcurve"/>
      <point x="30" y="-171" type="line"/>
      <point x="40" y="-145"/>
      <point x="52" y="-111"/>
      <point x="63" y="-81"/>
      <point x="75" y="-47"/>
      <point x="85" y="-21" type="qcurve"/>
    </contour>
  </outline>
</glyph>
<glyph name="lcaron" format="1">
  <advance width="243"/>
  <unicode hex="013E"/>
  <outline>
    <contour>
      <point x="148" y="766" type="line"/>
      <point x="148" y="48" type="line"/>
      <point x="221" y="48" type="line"/>
      <point x="221" y="0" type="line"/>
      <point x="25" y="0" type="line"/>
      <point x="25" y="48" type="line"/>
      <point x="93" y="48" type="line"/>
      <point x="93" y="717" type="line"/>
      <point x="25" y="717" type="line"/>
      <point x="25" y="766" type="line"/>
    </contour>
    <contour>
      <point x="227" y="573" type="qcurve"/>
      <point x="198" y="595" type="line"/>
      <point x="220" y="615"/>
      <point x="239" y="675"/>
      <point x="232" y="710" type="qcurve"/>
      <point x="272" y="717" type="line"/>
      <point x="280" y="675"/>
      <point x="256" y="600"/>
    </contour>
  </outline>
</glyph>
<glyph name="Nacute" format="1">
  <advance width="867"/>
  <unicode hex="0143"/>
  <outline>
    <contour>
      <point x="284" y="60" type="line"/>
      <point x="284" y="0" type="line"/>
      <point x="56" y="0" type="line"/>
      <point x="56" y="60" type="line"/>
      <point x="134" y="60" type="line"/>
      <point x="134" y="654" type="line"/>
      <point x="54" y="654" type="line"/>
      <point x="54" y="714" type="line"/>
      <point x="165" y="714" type="line"/>
      <point x="194" y="678"/>
      <point x="274" y="586"/>
      <point x="365" y="485"/>
      <point x="462" y="380"/>
      <point x="552" y="280"/>
      <point x="630" y="190"/>
      <point x="658" y="155" type="qcurve"/>
      <point x="677" y="128" type="line"/>
      <point x="674" y="161" type="line"/>
      <point x="674" y="655" type="line"/>
      <point x="591" y="655" type="line"/>
      <point x="591" y="715" type="line"/>
      <point x="819" y="715" type="line"/>
      <point x="819" y="655" type="line"/>
      <point x="742" y="655" type="line"/>
      <point x="742" y="-33" type="line"/>
      <point x="713" y="2"/>
      <point x="628" y="99"/>
      <point x="529" y="209"/>
      <point x="424" y="324"/>
      <point x="327" y="434"/>
      <point x="245" y="529"/>
      <point x="219" y="564" type="qcurve"/>
      <point x="200" y="590" type="line"/>
      <point x="203" y="558" type="line"/>
      <point x="203" y="60" type="line"/>
    </contour>
    <contour>
      <point x="377" y="760" type="line"/>
      <point x="468" y="894" type="line"/>
      <point x="527" y="894" type="line"/>
      <point x="501" y="860"/>
      <point x="447" y="793"/>
      <point x="420" y="760" type="qcurve"/>
    </contour>
  </outline>
</glyph>
<glyph name="Ncaron" format="1">
  <advance width="867"/>
  <unicode hex="0147"/>
  <outline>
    <contour>
      <point x="284" y="60" type="line"/>
      <point x="284" y="0" type="line"/>
      <point x="56" y="0" type="line"/>
      <point x="56" y="60" type="line"/>
      <point x="134" y="60" type="line"/>
      <point x="134" y="654" type="line"/>
      <point x="54" y="654" type="line"/>
      <point x="54" y="714" type="line"/>
      <point x="165" y="714" type="line"/>
      <point x="194" y="678"/>
      <point x="274" y="586"/>
      <point x="365" y="485"/>
      <point x="462" y="380"/>
      <point x="552" y="280"/>
      <point x="630" y="190"/>
      <point x="658" y="155" type="qcurve"/>
      <point x="677" y="128" type="line"/>
      <point x="674" y="161" type="line"/>
      <point x="674" y="655" type="line"/>
      <point x="591" y="655" type="line"/>
      <point x="591" y="715" type="line"/>
      <point x="819" y="715" type="line"/>
      <point x="819" y="655" type="line"/>
      <point x="742" y="655" type="line"/>
      <point x="742" y="-33" type="line"/>
      <point x="713" y="2"/>
      <point x="628" y="99"/>
      <point x="529" y="209"/>
      <point x="424" y="324"/>
      <point x="327" y="434"/>
      <point x="245" y="529"/>
      <point x="219" y="564" type="qcurve"/>
      <point x="200" y="590" type="line"/>
      <point x="203" y="558" type="line"/>
      <point x="203" y="60" type="line"/>
    </contour>
    <contour>
      <point x="413" y="737" type="qcurve"/>
      <point x="384" y="769"/>
      <point x="359" y="796" type="qcurve"/>
      <point x="338" y="819"/>
      <point x="298" y="863"/>
      <point x="292" y="871" type="qcurve"/>
      <point x="335" y="871" type="line"/>
      <point x="413" y="801" type="line"/>
      <point x="490" y="871" type="line"/>
      <point x="534" y="871" type="line"/>
      <point x="526" y="862"/>
      <point x="487" y="818"/>
      <point x="466" y="795" type="qcurve"/>
      <point x="441" y="768"/>
    </contour>
  </outline>
</glyph>
<glyph name="ncaron" format="1">
  <advance width="539"/>
  <unicode hex="0148"/>
  <outline>
    <contour>
      <point x="451" y="289" type="qcurve"/>
      <point x="451" y="48" type="line"/>
      <point x="519" y="48" type="line"/>
      <point x="519" y="0" type="line"/>
      <point x="325" y="0" type="line"/>
      <point x="325" y="48" type="line"/>
      <point x="396" y="48" type="line"/>
      <point x="396" y="270" type="line"/>
      <point x="394" y="304"/>
      <point x="350" y="352"/>
      <point x="307" y="354" type="qcurve"/>
      <point x="275" y="354"/>
      <point x="220" y="333"/>
      <point x="180" y="295"/>
      <point x="156" y="243"/>
      <point x="156" y="212" type="qcurve"/>
      <point x="156" y="48" type="line"/>
      <point x="229" y="48" type="line"/>
      <point x="229" y="0" type="line"/>
      <point x="33" y="0" type="line"/>
      <point x="33" y="48" type="line"/>
      <point x="101" y="48" type="line"/>
      <point x="101" y="351" type="line"/>
      <point x="33" y="351" type="line"/>
      <point x="33" y="400" type="line"/>
      <point x="148" y="400" type="line"/>
      <point x="153" y="297" type="line"/>
      <point x="175" y="347"/>
      <point x="261" y="409"/>
      <point x="321" y="409" type="qcurve"/>
      <point x="380" y="409"/>
      <point x="449" y="343"/>
    </contour>
    <contour>
      <point x="270" y="483" type="qcurve"/>
      <point x="241" y="515"/>
      <point x="216" y="542" type="qcurve"/>
      <point x="195" y="565"/>
      <point x="155" y="609"/>
      <point x="149" y="617" type="qcurve"/>
      <point x="192" y="617" type="line"/>
      <point x="270" y="547" type="line"/>
      <point x="347" y="617" type="line"/>
      <point x="391" y="617" type="line"/>
      <point x="383" y="608"/>
      <point x="344" y="564"/>
      <point x="323" y="541" type="qcurve"/>
      <point x="298" y="514"/>
    </contour>
  </outline>
</glyph>
<glyph name="OE" format="1">
  <advance width="919"/>
  <unicode hex="0152"/>
  <outline>
    <contour>
      <point x="791" y="580" type="line"/>
      <point x="791" y="652" type="line"/>
      <point x="531" y="652" type="line"/>
      <point x="531" y="391" type="line"/>
      <point x="815" y="391" type="line"/>
      <point x="815" y="327" type="line"/>
      <point x="531" y="327" type="line"/>
      <point x="531" y="64" type="line"/>
      <point x="805" y="64" type="line"/>
      <point x="805" y="140" type="line"/>
      <point x="869" y="140" type="line"/>
      <point x="869" y="0" type="line"/>
      <point x="490" y="0" type="line"/>
      <point x="450" y="-8"/>
      <point x="413" y="-8" type="qcurve"/>
      <point x="338" y="-8"/>
      <point x="205" y="49"/>
      <point x="106" y="148"/>
      <point x="49" y="281"/>
      <point x="49" y="356" type="qcurve"/>
      <point x="49" y="431"/>
      <point x="106" y="564"/>
      <point x="205" y="664"/>
      <point x="338" y="722"/>
      <point x="413" y="722" type="qcurve"/>
      <point x="450" y="722"/>
      <point x="490" y="714" type="qcurve"/>
      <point x="855" y="714" type="line"/>
      <point x="855" y="580" type="line"/>
    </contour>
    <contour>
      <point x="413" y="656" type="qcurve"/>
      <point x="351" y="656"/>
      <point x="244" y="609"/>
      <point x="163" y="527"/>
      <point x="117" y="418"/>
      <point x="117" y="356" type="qcurve"/>
      <point x="117" y="294"/>
      <point x="164" y="185"/>
      <point x="244" y="104"/>
      <point x="352" y="57"/>
      <point x="413" y="57" type="qcurve"/>
      <point x="426" y="57"/>
      <point x="451" y="59"/>
      <point x="463" y="61" type="qcurve"/>
      <point x="463" y="652" type="line"/>
      <point x="451" y="654"/>
      <point x="426" y="656"/>
    </contour>
  </outline>
</glyph>
<glyph name="racute" format="1">
  <advance width="334"/>
  <unicode hex="0155"/>
  <outline>
    <contour>
      <point x="156" y="208" type="qcurve"/>
      <point x="156" y="48" type="line"/>
      <point x="245" y="48" type="line"/>
      <point x="245" y="0" type="line"/>
      <point x="33" y="0" type="line"/>
      <point x="33" y="48" type="line"/>
      <point x="101" y="48" type="line"/>
      <point x="101" y="351" type="line"/>
      <point x="33" y="351" type="line"/>
      <point x="33" y="400" type="line"/>
      <point x="149" y="400" type="line"/>
      <point x="153" y="297" type="line"/>
      <point x="165" y="323"/>
      <point x="204" y="364"/>
      <point x="249" y="393"/>
      <point x="298" y="409"/>
      <point x="320" y="409" type="qcurve"/>
      <point x="309" y="340" type="line"/>
      <point x="279" y="340"/>
      <point x="224" y="321"/>
      <point x="181" y="287"/>
      <point x="156" y="238"/>
    </contour>
    <contour>
      <point x="128" y="483" type="line"/>
      <point x="219" y="617" type="line"/>
      <point x="278" y="617" type="line"/>
      <point x="252" y="583"/>
      <point x="198" y="516"/>
      <point x="171" y="483" type="qcurve"/>
    </contour>
  </outline>
</glyph>
<glyph name="uni0157" format="1">
  <advance width="334"/>
  <unicode hex="0157"/>
  <outline>
    <contour>
      <point x="309" y="340" type="line"/>
      <point x="279" y="340"/>
      <point x="224" y="321"/>
      <point x="181" y="287"/>
      <point x="156" y="238"/>
      <point x="156" y="208" type="qcurve"/>
      <point x="156" y="48" type="line"/>
      <point x="245" y="48" type="line"/>
      <point x="245" y="0" type="line"/>
      <point x="33" y="0" type="line"/>
      <point x="33" y="48" type="line"/>
      <point x="101" y="48" type="line"/>
      <point x="101" y="351" type="line"/>
      <point x="33" y="351" type="line"/>
      <point x="33" y="400" type="line"/>
      <point x="149" y="400" type="line"/>
      <point x="153" y="297" type="line"/>
      <point x="165" y="323"/>
      <point x="204" y="364"/>
      <point x="249" y="393"/>
      <point x="298" y="409"/>
      <point x="320" y="409" type="qcurve"/>
    </contour>
    <contour>
      <point x="191" y="-21" type="line"/>
      <point x="180" y="-47"/>
      <point x="166" y="-81"/>
      <point x="152" y="-111"/>
      <point x="138" y="-145"/>
      <point x="127" y="-171" type="qcurve"/>
      <point x="78" y="-171" type="line"/>
      <point x="88" y="-145"/>
      <point x="100" y="-111"/>
      <point x="111" y="-81"/>
      <point x="123" y="-47"/>
      <point x="133" y="-21" type="qcurve"/>
    </contour>
  </outline>
</glyph>
<glyph name="rcaron" format="1">
  <advance width="334"/>
  <unicode hex="0159"/>
  <outline>
    <contour>
      <point x="156" y="208" type="qcurve"/>
      <point x="156" y="48" type="line"/>
      <point x="245" y="48" type="line"/>
      <point x="245" y="0" type="line"/>
      <point x="33" y="0" type="line"/>
      <point x="33" y="48" type="line"/>
      <point x="101" y="48" type="line"/>
      <point x="101" y="351" type="line"/>
      <point x="33" y="351" type="line"/>
      <point x="33" y="400" type="line"/>
      <point x="149" y="400" type="line"/>
      <point x="153" y="297" type="line"/>
      <point x="165" y="323"/>
      <point x="204" y="364"/>
      <point x="249" y="393"/>
      <point x="298" y="409"/>
      <point x="320" y="409" type="qcurve"/>
      <point x="309" y="340" type="line"/>
      <point x="279" y="340"/>
      <point x="224" y="321"/>
      <point x="181" y="287"/>
      <point x="156" y="238"/>
    </contour>
    <contour>
      <point x="176" y="483" type="qcurve"/>
      <point x="147" y="515"/>
      <point x="122" y="542" type="qcurve"/>
      <point x="101" y="565"/>
      <point x="61" y="609"/>
      <point x="55" y="617" type="qcurve"/>
      <point x="98" y="617" type="line"/>
      <point x="176" y="547" type="line"/>
      <point x="253" y="617" type="line"/>
      <point x="297" y="617" type="line"/>
      <point x="289" y="608"/>
      <point x="250" y="564"/>
      <point x="229" y="541" type="qcurve"/>
      <point x="204" y="514"/>
    </contour>
  </outline>
</glyph>
<glyph name="sacute" format="1">
  <advance width="349"/>
  <unicode hex="015B"/>
  <outline>
    <contour>
      <point x="90" y="111" type="line"/>
      <point x="90" y="66" type="line"/>
      <point x="104" y="58"/>
      <point x="147" y="45"/>
      <point x="169" y="45" type="qcurve"/>
      <point x="182" y="45"/>
      <point x="211" y="52"/>
      <point x="235" y="68"/>
      <point x="250" y="93"/>
      <point x="250" y="110" type="qcurve"/>
      <point x="250" y="132"/>
      <point x="221" y="159"/>
      <point x="178" y="178"/>
      <point x="128" y="196"/>
      <point x="85" y="223"/>
      <point x="56" y="264"/>
      <point x="56" y="298" type="qcurve"/>
      <point x="56" y="327"/>
      <point x="78" y="368"/>
      <point x="112" y="395"/>
      <point x="156" y="407"/>
      <point x="178" y="407" type="qcurve"/>
      <point x="202" y="407"/>
      <point x="268" y="389"/>
      <point x="290" y="366" type="qcurve"/>
      <point x="290" y="292" type="line"/>
      <point x="242" y="292" type="line"/>
      <point x="242" y="340" type="line"/>
      <point x="230" y="345"/>
      <point x="196" y="353"/>
      <point x="179" y="353" type="qcurve"/>
      <point x="168" y="353"/>
      <point x="144" y="347"/>
      <point x="124" y="334"/>
      <point x="112" y="313"/>
      <point x="112" y="298" type="qcurve"/>
      <point x="112" y="275"/>
      <point x="141" y="248"/>
      <point x="183" y="228"/>
      <point x="234" y="210"/>
      <point x="276" y="184"/>
      <point x="305" y="144"/>
      <point x="305" y="112" type="qcurve"/>
      <point x="305" y="61"/>
      <point x="233" y="-8"/>
      <point x="168" y="-8" type="qcurve"/>
      <point x="153" y="-8"/>
      <point x="118" y="-3"/>
      <point x="84" y="7"/>
      <point x="54" y="25"/>
      <point x="43" y="38" type="qcurve"/>
      <point x="43" y="111" type="line"/>
    </contour>
    <contour>
      <point x="130" y="483" type="line"/>
      <point x="221" y="617" type="line"/>
      <point x="280" y="617" type="line"/>
      <point x="254" y="583"/>
      <point x="200" y="516"/>
      <point x="173" y="483" type="qcurve"/>
    </contour>
  </outline>
</glyph>
<glyph name="Scircumflex" format="1">
  <advance width="561"/>
  <unicode hex="015C"/>
  <outline>
    <contour>
      <point x="52" y="61" type="line"/>
      <point x="52" y="173" type="line"/>
      <point x="116" y="173" type="line"/>
      <point x="116" y="100" type="line"/>
      <point x="148" y="82"/>
      <point x="225" y="59"/>
      <point x="263" y="59" type="qcurve"/>
      <point x="291" y="59"/>
      <point x="355" y="74"/>
      <point x="409" y="108"/>
      <point x="444" y="160"/>
      <point x="444" y="198" type="qcurve"/>
      <point x="444" y="245"/>
      <point x="389" y="304"/>
      <point x="307" y="344"/>
      <point x="211" y="377"/>
      <point x="129" y="420"/>
      <point x="74" y="483"/>
      <point x="74" y="535" type="qcurve"/>
      <point x="74" y="571"/>
      <point x="103" y="638"/>
      <point x="159" y="688"/>
      <point x="239" y="718"/>
      <point x="289" y="718" type="qcurve"/>
      <point x="317" y="718"/>
      <point x="376" y="709"/>
      <point x="428" y="696"/>
      <point x="470" y="682"/>
      <point x="481" y="677" type="qcurve"/>
      <point x="481" y="562" type="line"/>
      <point x="416" y="562" type="line"/>
      <point x="416" y="636" type="line"/>
      <point x="387" y="644"/>
      <point x="325" y="656"/>
      <point x="296" y="656" type="qcurve"/>
      <point x="260" y="656"/>
      <point x="203" y="638"/>
      <point x="163" y="606"/>
      <point x="142" y="565"/>
      <point x="142" y="541" type="qcurve"/>
      <point x="142" y="501"/>
      <point x="197" y="455"/>
      <point x="279" y="420"/>
      <point x="374" y="387"/>
      <point x="456" y="336"/>
      <point x="511" y="258"/>
      <point x="511" y="195" type="qcurve"/>
      <point x="511" y="102"/>
      <point x="384" y="-8"/>
      <point x="265" y="-8" type="qcurve"/>
      <point x="223" y="-8"/>
      <point x="155" y="7"/>
      <point x="103" y="28"/>
      <point x="65" y="52"/>
      <point x="53" y="61" type="qcurve"/>
    </contour>
    <contour>
      <point x="302" y="891" type="qcurve"/>
      <point x="330" y="860"/>
      <point x="355" y="833" type="qcurve"/>
      <point x="376" y="810"/>
      <point x="415" y="765"/>
      <point x="423" y="757" type="qcurve"/>
      <point x="379" y="757" type="line"/>
      <point x="302" y="827" type="line"/>
      <point x="224" y="757" type="line"/>
      <point x="181" y="757" type="line"/>
      <point x="187" y="765"/>
      <point x="227" y="809"/>
      <point x="248" y="832" type="qcurve"/>
      <point x="273" y="859"/>
    </contour>
  </outline>
</glyph>
<glyph name="scircumflex" format="1">
  <advance width="349"/>
  <unicode hex="015D"/>
  <outline>
    <contour>
      <point x="90" y="111" type="line"/>
      <point x="90" y="66" type="line"/>
      <point x="104" y="58"/>
      <point x="147" y="45"/>
      <point x="169" y="45" type="qcurve"/>
      <point x="182" y="45"/>
      <point x="211" y="52"/>
      <point x="235" y="68"/>
      <point x="250" y="93"/>
      <point x="250" y="110" type="qcurve"/>
      <point x="250" y="132"/>
      <point x="221" y="159"/>
      <point x="178" y="178"/>
      <point x="128" y="196"/>
      <point x="85" y="223"/>
      <point x="56" y="264"/>
      <point x="56" y="298" type="qcurve"/>
      <point x="56" y="327"/>
      <point x="78" y="368"/>
      <point x="112" y="395"/>
      <point x="156" y="407"/>
      <point x="178" y="407" type="qcurve"/>
      <point x="202" y="407"/>
      <point x="268" y="389"/>
      <point x="290" y="366" type="qcurve"/>
      <point x="290" y="292" type="line"/>
      <point x="242" y="292" type="line"/>
      <point x="242" y="340" type="line"/>
      <point x="230" y="345"/>
      <point x="196" y="353"/>
      <point x="179" y="353" type="qcurve"/>
      <point x="168" y="353"/>
      <point x="144" y="347"/>
      <point x="124" y="334"/>
      <point x="112" y="313"/>
      <point x="112" y="298" type="qcurve"/>
      <point x="112" y="275"/>
      <point x="141" y="248"/>
      <point x="183" y="228"/>
      <point x="234" y="210"/>
      <point x="276" y="184"/>
      <point x="305" y="144"/>
      <point x="305" y="112" type="qcurve"/>
      <point x="305" y="61"/>
      <point x="233" y="-8"/>
      <point x="168" y="-8" type="qcurve"/>
      <point x="153" y="-8"/>
      <point x="118" y="-3"/>
      <point x="84" y="7"/>
      <point x="54" y="25"/>
      <point x="43" y="38" type="qcurve"/>
      <point x="43" y="111" type="line"/>
    </contour>
    <contour>
      <point x="177" y="617" type="qcurve"/>
      <point x="205" y="586"/>
      <point x="230" y="559" type="qcurve"/>
      <point x="251" y="536"/>
      <point x="290" y="491"/>
      <point x="298" y="483" type="qcurve"/>
      <point x="254" y="483" type="line"/>
      <point x="177" y="553" type="line"/>
      <point x="99" y="483" type="line"/>
      <point x="56" y="483" type="line"/>
      <point x="62" y="491"/>
      <point x="102" y="535"/>
      <point x="123" y="558" type="qcurve"/>
      <point x="148" y="585"/>
    </contour>
  </outline>
</glyph>
<glyph name="scedilla" format="1">
  <advance width="349"/>
  <unicode hex="015F"/>
  <outline>
    <contour>
      <point x="90" y="111" type="line"/>
      <point x="90" y="66" type="line"/>
      <point x="104" y="58"/>
      <point x="147" y="45"/>
      <point x="169" y="45" type="qcurve"/>
      <point x="182" y="45"/>
      <point x="211" y="52"/>
      <point x="235" y="68"/>
      <point x="250" y="93"/>
      <point x="250" y="110" type="qcurve"/>
      <point x="250" y="132"/>
      <point x="221" y="159"/>
      <point x="178" y="178"/>
      <point x="128" y="196"/>
      <point x="85" y="223"/>
      <point x="56" y="264"/>
      <point x="56" y="298" type="qcurve"/>
      <point x="56" y="327"/>
      <point x="78" y="368"/>
      <point x="112" y="395"/>
      <point x="156" y="407"/>
      <point x="178" y="407" type="qcurve"/>
      <point x="202" y="407"/>
      <point x="268" y="389"/>
      <point x="290" y="366" type="qcurve"/>
      <point x="290" y="292" type="line"/>
      <point x="242" y="292" type="line"/>
      <point x="242" y="340" type="line"/>
      <point x="230" y="345"/>
      <point x="196" y="353"/>
      <point x="179" y="353" type="qcurve"/>
      <point x="168" y="353"/>
      <point x="144" y="347"/>
      <point x="124" y="334"/>
      <point x="112" y="313"/>
      <point x="112" y="298" type="qcurve"/>
      <point x="112" y="275"/>
      <point x="141" y="248"/>
      <point x="183" y="228"/>
      <point x="234" y="210"/>
      <point x="276" y="184"/>
      <point x="305" y="144"/>
      <point x="305" y="112" type="qcurve"/>
      <point x="305" y="66"/>
      <point x="244" y="0"/>
      <point x="190" y="-6" type="qcurve"/>
      <point x="190" y="-7" type="line"/>
      <point x="190" y="-21"/>
      <point x="198" y="-38"/>
      <point x="210" y="-49"/>
      <point x="225" y="-57"/>
      <point x="231" y="-61" type="qcurve"/>
      <point x="253" y="-77"/>
      <point x="271" y="-117"/>
      <point x="271" y="-138" type="qcurve"/>
      <point x="271" y="-184"/>
      <point x="218" y="-242"/>
      <point x="173" y="-242" type="qcurve"/>
      <point x="142" y="-242"/>
      <point x="89" y="-208"/>
      <point x="77" y="-173" type="qcurve"/>
      <point x="96" y="-163"/>
      <point x="112" y="-156" type="qcurve"/>
      <point x="117" y="-174"/>
      <point x="147" y="-197"/>
      <point x="169" y="-197" type="qcurve"/>
      <point x="195" y="-197"/>
      <point x="227" y="-161"/>
      <point x="227" y="-135" type="qcurve"/>
      <point x="227" y="-112"/>
      <point x="204" y="-86"/>
      <point x="175" y="-67"/>
      <point x="152" y="-46"/>
      <point x="152" y="-28" type="qcurve"/>
      <point x="152" y="-7" type="line"/>
      <point x="123" y="-5"/>
      <point x="62" y="15"/>
      <point x="43" y="38" type="qcurve"/>
      <point x="43" y="111" type="line"/>
    </contour>
  </outline>
</glyph>
<glyph name="uni0163" format="1">
  <advance width="283"/>
  <unicode hex="0163"/>
  <outline>
    <contour>
      <point x="151" y="346" type="line"/>
      <point x="151" y="48" type="line"/>
      <point x="245" y="48" type="line"/>
      <point x="245" y="0" type="line"/>
      <point x="96" y="0" type="line"/>
      <point x="96" y="346" type="line"/>
      <point x="15" y="346" type="line"/>
      <point x="15" y="396" type="line"/>
      <point x="96" y="396" type="line"/>
      <point x="96" y="575" type="line"/>
      <point x="151" y="575" type="line"/>
      <point x="151" y="396" type="line"/>
      <point x="269" y="396" type="line"/>
      <point x="269" y="346" type="line"/>
    </contour>
    <contour>
      <point x="165" y="-21" type="line"/>
      <point x="154" y="-47"/>
      <point x="140" y="-81"/>
      <point x="126" y="-111"/>
      <point x="112" y="-145"/>
      <point x="101" y="-171" type="qcurve"/>
      <point x="52" y="-171" type="line"/>
      <point x="62" y="-145"/>
      <point x="74" y="-111"/>
      <point x="85" y="-81"/>
      <point x="97" y="-47"/>
      <point x="107" y="-21" type="qcurve"/>
    </contour>
  </outline>
</glyph>
<glyph name="Tbar" format="1">
  <advance width="571"/>
  <unicode hex="0166"/>
  <outline>
    <contour>
      <point x="463" y="562" type="line"/>
      <point x="463" y="649" type="line"/>
      <point x="320" y="649" type="line"/>
      <point x="320" y="502" type="line"/>
      <point x="398" y="502" type="line"/>
      <point x="398" y="463" type="line"/>
      <point x="320" y="463" type="line"/>
      <point x="320" y="0" type="line"/>
      <point x="251" y="0" type="line"/>
      <point x="251" y="463" type="line"/>
      <point x="166" y="463" type="line"/>
      <point x="166" y="502" type="line"/>
      <point x="251" y="502" type="line"/>
      <point x="251" y="649" type="line"/>
      <point x="108" y="649" type="line"/>
      <point x="108" y="562" type="line"/>
      <point x="43" y="562" type="line"/>
      <point x="43" y="714" type="line"/>
      <point x="528" y="714" type="line"/>
      <point x="528" y="562" type="line"/>
    </contour>
  </outline>
</glyph>
<glyph name="Utilde" format="1">
  <advance width="749"/>
  <unicode hex="0168"/>
  <outline>
    <contour>
      <point x="269" y="714" type="line"/>
      <point x="269" y="654" type="line"/>
      <point x="190" y="654" type="line"/>
      <point x="190" y="246" type="line"/>
      <point x="190" y="203"/>
      <point x="218" y="133"/>
      <point x="267" y="84"/>
      <point x="335" y="57"/>
      <point x="375" y="57" type="qcurve"/>
      <point x="414" y="57"/>
      <point x="482" y="84"/>
      <point x="532" y="133"/>
      <point x="561" y="203"/>
      <point x="561" y="246" type="qcurve"/>
      <point x="561" y="714" type="line"/>
      <point x="708" y="714" type="line"/>
      <point x="708" y="654" type="line"/>
      <point x="630" y="654" type="line"/>
      <point x="630" y="243" type="line"/>
      <point x="630" y="184"/>
      <point x="591" y="91"/>
      <point x="522" y="27"/>
      <point x="429" y="-8"/>
      <point x="375" y="-8" type="qcurve"/>
      <point x="321" y="-8"/>
      <point x="229" y="27"/>
      <point x="160" y="91"/>
      <point x="121" y="184"/>
      <point x="121" y="243" type="qcurve"/>
      <point x="121" y="654" type="line"/>
      <point x="41" y="654" type="line"/>
      <point x="41" y="714" type="line"/>
    </contour>
    <contour>
      <point x="371" y="793" type="qcurve"/>
      <point x="355" y="810"/>
      <point x="332" y="821"/>
      <point x="318" y="821" type="qcurve"/>
      <point x="310" y="821"/>
      <point x="292" y="817"/>
      <point x="274" y="806"/>
      <point x="261" y="786"/>
      <point x="259" y="771" type="qcurve"/>
      <point x="226" y="773" type="line"/>
      <point x="227" y="793"/>
      <point x="244" y="823"/>
      <point x="269" y="844"/>
      <point x="299" y="854"/>
      <point x="314" y="854" type="qcurve"/>
      <point x="337" y="854"/>
      <point x="373" y="836"/>
      <point x="389" y="819" type="qcurve"/>
      <point x="405" y="802"/>
      <point x="428" y="791"/>
      <point x="442" y="791" type="qcurve"/>
      <point x="449" y="791"/>
      <point x="468" y="795"/>
      <point x="486" y="806"/>
      <point x="499" y="826"/>
      <point x="501" y="841" type="qcurve"/>
      <point x="534" y="839" type="line"/>
      <point x="533" y="819"/>
      <point x="516" y="789"/>
      <point x="491" y="768"/>
      <point x="461" y="758"/>
      <point x="446" y="758" type="qcurve"/>
      <point x="423" y="758"/>
      <point x="387" y="777"/>
    </contour>
  </outline>
</glyph>
<glyph name="Umacron" format="1">
  <advance width="749"/>
  <unicode hex="016A"/>
  <outline>
    <contour>
      <point x="269" y="714" type="line"/>
      <point x="269" y="654" type="line"/>
      <point x="190" y="654" type="line"/>
      <point x="190" y="246" type="line"/>
      <point x="190" y="203"/>
      <point x="218" y="133"/>
      <point x="267" y="84"/>
      <point x="335" y="57"/>
      <point x="375" y="57" type="qcurve"/>
      <point x="414" y="57"/>
      <point x="482" y="84"/>
      <point x="532" y="133"/>
      <point x="561" y="203"/>
      <point x="561" y="246" type="qcurve"/>
      <point x="561" y="714" type="line"/>
      <point x="708" y="714" type="line"/>
      <point x="708" y="654" type="line"/>
      <point x="630" y="654" type="line"/>
      <point x="630" y="243" type="line"/>
      <point x="630" y="184"/>
      <point x="591" y="91"/>
      <point x="522" y="27"/>
      <point x="429" y="-8"/>
      <point x="375" y="-8" type="qcurve"/>
      <point x="321" y="-8"/>
      <point x="229" y="27"/>
      <point x="160" y="91"/>
      <point x="121" y="184"/>
      <point x="121" y="243" type="qcurve"/>
      <point x="121" y="654" type="line"/>
      <point x="41" y="654" type="line"/>
      <point x="41" y="714" type="line"/>
    </contour>
    <contour>
      <point x="265" y="771" type="line"/>
      <point x="265" y="810" type="line"/>
      <point x="497" y="810" type="line"/>
      <point x="497" y="771" type="line"/>
    </contour>
  </outline>
</glyph>
<glyph name="Ubreve" format="1">
  <advance width="749"/>
  <unicode hex="016C"/>
  <outline>
    <contour>
      <point x="269" y="714" type="line"/>
      <point x="269" y="654" type="line"/>
      <point x="190" y="654" type="line"/>
      <point x="190" y="246" type="line"/>
      <point x="190" y="203"/>
      <point x="218" y="133"/>
      <point x="267" y="84"/>
      <point x="335" y="57"/>
      <point x="375" y="57" type="qcurve"/>
      <point x="414" y="57"/>
      <point x="482" y="84"/>
      <point x="532" y="133"/>
      <point x="561" y="203"/>
      <point x="561" y="246" type="qcurve"/>
      <point x="561" y="714" type="line"/>
      <point x="708" y="714" type="line"/>
      <point x="708" y="654" type="line"/>
      <point x="630" y="654" type="line"/>
      <point x="630" y="243" type="line"/>
      <point x="630" y="184"/>
      <point x="591" y="91"/>
      <point x="522" y="27"/>
      <point x="429" y="-8"/>
      <point x="375" y="-8" type="qcurve"/>
      <point x="321" y="-8"/>
      <point x="229" y="27"/>
      <point x="160" y="91"/>
      <point x="121" y="184"/>
      <point x="121" y="243" type="qcurve"/>
      <point x="121" y="654" type="line"/>
      <point x="41" y="654" type="line"/>
      <point x="41" y="714" type="line"/>
    </contour>
    <contour>
      <point x="383" y="759" type="qcurve"/>
      <point x="350" y="759"/>
      <point x="291" y="783"/>
      <point x="247" y="825"/>
      <point x="221" y="883"/>
      <point x="220" y="916" type="qcurve"/>
      <point x="254" y="916" type="line"/>
      <point x="255" y="890"/>
      <point x="275" y="846"/>
      <point x="309" y="812"/>
      <point x="356" y="793"/>
      <point x="383" y="793" type="qcurve"/>
      <point x="439" y="793"/>
      <point x="507" y="865"/>
      <point x="509" y="916" type="qcurve"/>
      <point x="544" y="916" type="line"/>
      <point x="544" y="883"/>
      <point x="518" y="825"/>
      <point x="474" y="783"/>
      <point x="416" y="759"/>
    </contour>
  </outline>
</glyph>
<glyph name="Uhungarumlaut" format="1">
  <advance width="749"/>
  <unicode hex="0170"/>
  <outline>
    <contour>
      <point x="269" y="714" type="line"/>
      <point x="269" y="654" type="line"/>
      <point x="190" y="654" type="line"/>
      <point x="190" y="246" type="line"/>
      <point x="190" y="203"/>
      <point x="218" y="133"/>
      <point x="267" y="84"/>
      <point x="335" y="57"/>
      <point x="375" y="57" type="qcurve"/>
      <point x="414" y="57"/>
      <point x="482" y="84"/>
      <point x="532" y="133"/>
      <point x="561" y="203"/>
      <point x="561" y="246" type="qcurve"/>
      <point x="561" y="714" type="line"/>
      <point x="708" y="714" type="line"/>
      <point x="708" y="654" type="line"/>
      <point x="630" y="654" type="line"/>
      <point x="630" y="243" type="line"/>
      <point x="630" y="184"/>
      <point x="591" y="91"/>
      <point x="522" y="27"/>
      <point x="429" y="-8"/>
      <point x="375" y="-8" type="qcurve"/>
      <point x="321" y="-8"/>
      <point x="229" y="27"/>
      <point x="160" y="91"/>
      <point x="121" y="184"/>
      <point x="121" y="243" type="qcurve"/>
      <point x="121" y="654" type="line"/>
      <point x="41" y="654" type="line"/>
      <point x="41" y="714" type="line"/>
    </contour>
    <contour>
      <point x="476" y="758" type="line"/>
      <point x="499" y="791"/>
      <point x="544" y="858"/>
      <point x="567" y="892" type="qcurve"/>
      <point x="627" y="892" type="line"/>
      <point x="601" y="858"/>
      <point x="547" y="791"/>
      <point x="520" y="758" type="qcurve"/>
    </contour>
    <contour>
      <point x="257" y="758" type="line"/>
      <point x="348" y="892" type="line"/>
      <point x="407" y="892" type="line"/>
      <point x="381" y="858"/>
      <point x="327" y="791"/>
      <point x="300" y="758" type="qcurve"/>
    </contour>
  </outline>
</glyph>
<glyph name="Uogonek" format="1">
  <advance width="749"/>
  <unicode hex="0172"/>
  <outline>
    <contour>
      <point x="269" y="714" type="line"/>
      <point x="269" y="654" type="line"/>
      <point x="190" y="654" type="line"/>
      <point x="190" y="246" type="line"/>
      <point x="190" y="203"/>
      <point x="218" y="133"/>
      <point x="267" y="84"/>
      <point x="335" y="57"/>
      <point x="375" y="57" type="qcurve"/>
      <point x="414" y="57"/>
      <point x="482" y="84"/>
      <point x="532" y="133"/>
      <point x="561" y="203"/>
      <point x="561" y="246" type="qcurve"/>
      <point x="561" y="714" type="line"/>
      <point x="708" y="714" type="line"/>
      <point x="708" y="654" type="line"/>
      <point x="630" y="654" type="line"/>
      <point x="630" y="243" type="line"/>
      <point x="630" y="189"/>
      <point x="596" y="101"/>
      <point x="536" y="37"/>
      <point x="454" y="-2"/>
      <point x="406" y="-6" type="qcurve"/>
      <point x="406" y="-28" type="line"/>
      <point x="406" y="-46"/>
      <point x="383" y="-67"/>
      <point x="354" y="-86"/>
      <point x="331" y="-112"/>
      <point x="331" y="-135" type="qcurve"/>
      <point x="331" y="-161"/>
      <point x="362" y="-197"/>
      <point x="389" y="-197" type="qcurve"/>
      <point x="410" y="-197"/>
      <point x="440" y="-174"/>
      <point x="446" y="-156" type="qcurve"/>
      <point x="481" y="-173" type="line"/>
      <point x="469" y="-208"/>
      <point x="416" y="-242"/>
      <point x="384" y="-242" type="qcurve"/>
      <point x="339" y="-242"/>
      <point x="286" y="-184"/>
      <point x="286" y="-138" type="qcurve"/>
      <point x="286" y="-117"/>
      <point x="304" y="-77"/>
      <point x="326" y="-61" type="qcurve"/>
      <point x="332" y="-57"/>
      <point x="347" y="-49"/>
      <point x="359" y="-38"/>
      <point x="368" y="-22"/>
      <point x="368" y="-8" type="qcurve"/>
      <point x="315" y="-7"/>
      <point x="225" y="29"/>
      <point x="159" y="93"/>
      <point x="121" y="185"/>
      <point x="121" y="243" type="qcurve"/>
      <point x="121" y="654" type="line"/>
      <point x="41" y="654" type="line"/>
      <point x="41" y="714" type="line"/>
    </contour>
  </outline>
</glyph>
<glyph name="zacute" format="1">
  <advance width="424"/>
  <unicode hex="017A"/>
  <outline>
    <contour>
      <point x="389" y="111" type="line"/>
      <point x="389" y="0" type="line"/>
      <point x="24" y="0" type="line"/>
      <point x="273" y="352" type="line"/>
      <point x="110" y="352" type="line"/>
      <point x="77" y="352"/>
      <point x="38" y="381"/>
      <point x="38" y="411" type="qcurve"/>
      <point x="38" y="438" type="line"/>
      <point x="88" y="438" type="line"/>
      <point x="88" y="425" type="line"/>
      <point x="88" y="411"/>
      <point x="104" y="400"/>
      <point x="121" y="400" type="qcurve"/>
      <point x="373" y="400" type="line"/>
      <point x="128" y="54" type="line"/>
      <point x="341" y="54" type="line"/>
      <point x="341" y="111" type="line"/>
    </contour>
    <contour>
      <point x="180" y="483" type="line"/>
      <point x="271" y="617" type="line"/>
      <point x="330" y="617" type="line"/>
      <point x="304" y="583"/>
      <point x="250" y="516"/>
      <point x="223" y="483" type="qcurve"/>
    </contour>
  </outline>
</glyph>
<glyph name="zdotaccent" format="1">
  <advance width="424"/>
  <unicode hex="017C"/>
  <outline>
    <contour>
      <point x="389" y="111" type="line"/>
      <point x="389" y="0" type="line"/>
      <point x="24" y="0" type="line"/>
      <point x="273" y="352" type="line"/>
      <point x="110" y="352" type="line"/>
      <point x="77" y="352"/>
      <point x="38" y="381"/>
      <point x="38" y="411" type="qcurve"/>
      <point x="38" y="438" type="line"/>
      <point x="88" y="438" type="line"/>
      <point x="88" y="425" type="line"/>
      <point x="88" y="411"/>
      <point x="104" y="400"/>
      <point x="121" y="400" type="qcurve"/>
      <point x="373" y="400" type="line"/>
      <point x="128" y="54" type="line"/>
      <point x="341" y="54" type="line"/>
      <point x="341" y="111" type="line"/>
    </contour>
    <contour>
      <point x="174" y="524" type="qcurve"/>
      <point x="174" y="541"/>
      <point x="199" y="564"/>
      <point x="214" y="564" type="qcurve"/>
      <point x="229" y="564"/>
      <point x="253" y="541"/>
      <point x="253" y="524" type="qcurve"/>
      <point x="253" y="506"/>
      <point x="229" y="484"/>
      <point x="214" y="484" type="qcurve"/>
      <point x="199" y="484"/>
      <point x="174" y="506"/>
    </contour>
  </outline>
</glyph>
<glyph name="Zcaron" format="1">
  <advance width="652"/>
  <unicode hex="017D"/>
  <outline>
    <contour>
      <point x="140" y="714" type="qcurve"/>
      <point x="589" y="714" type="line"/>
      <point x="131" y="66" type="line"/>
      <point x="548" y="66" type="line"/>
      <point x="548" y="173" type="line"/>
      <point x="612" y="173" type="line"/>
      <point x="612" y="0" type="line"/>
      <point x="12" y="0" type="line"/>
      <point x="37" y="36"/>
      <point x="111" y="143"/>
      <point x="197" y="267"/>
      <point x="288" y="399"/>
      <point x="374" y="522"/>
      <point x="448" y="626"/>
      <point x="473" y="660" type="qcurve"/>
      <point x="121" y="660" type="line"/>
      <point x="89" y="660"/>
      <point x="46" y="686"/>
      <point x="46" y="715" type="qcurve"/>
      <point x="46" y="750" type="line"/>
      <point x="109" y="750" type="line"/>
      <point x="109" y="737" type="line"/>
      <point x="109" y="723"/>
      <point x="123" y="714"/>
    </contour>
    <contour>
      <point x="326" y="753" type="qcurve"/>
      <point x="297" y="785"/>
      <point x="272" y="812" type="qcurve"/>
      <point x="251" y="835"/>
      <point x="211" y="879"/>
      <point x="205" y="887" type="qcurve"/>
      <point x="248" y="887" type="line"/>
      <point x="326" y="817" type="line"/>
      <point x="403" y="887" type="line"/>
      <point x="447" y="887" type="line"/>
      <point x="439" y="878"/>
      <point x="400" y="834"/>
      <point x="379" y="811" type="qcurve"/>
      <point x="354" y="784"/>
    </contour>
  </outline>
</glyph>
<glyph name="zcaron" format="1">
  <advance width="424"/>
  <unicode hex="017E"/>
  <outline>
    <contour>
      <point x="389" y="111" type="line"/>
      <point x="389" y="0" type="line"/>
      <point x="24" y="0" type="line"/>
      <point x="273" y="352" type="line"/>
      <point x="110" y="352" type="line"/>
      <point x="77" y="352"/>
      <point x="38" y="381"/>
      <point x="38" y="411" type="qcurve"/>
      <point x="38" y="438" type="line"/>
      <point x="88" y="438" type="line"/>
      <point x="88" y="425" type="line"/>
      <point x="88" y="411"/>
      <point x="104" y="400"/>
      <point x="121" y="400" type="qcurve"/>
      <point x="373" y="400" type="line"/>
      <point x="128" y="54" type="line"/>
      <point x="341" y="54" type="line"/>
      <point x="341" y="111" type="line"/>
    </contour>
    <contour>
      <point x="218" y="483" type="qcurve"/>
      <point x="189" y="515"/>
      <point x="164" y="542" type="qcurve"/>
      <point x="143" y="565"/>
      <point x="103" y="609"/>
      <point x="97" y="617" type="qcurve"/>
      <point x="140" y="617" type="line"/>
      <point x="218" y="547" type="line"/>
      <point x="295" y="617" type="line"/>
      <point x="339" y="617" type="line"/>
      <point x="331" y="608"/>
      <point x="292" y="564"/>
      <point x="271" y="541" type="qcurve"/>
      <point x="246" y="514"/>
    </contour>
  </outline>
</glyph>
<glyph name="circumflex" format="1">
  <advance width="450"/>
  <unicode hex="02C6"/>
  <outline>
    <contour>
      <point x="234" y="617" type="qcurve"/>
      <point x="262" y="586"/>
      <point x="287" y="559" type="qcurve"/>
      <point x="308" y="536"/>
      <point x="347" y="491"/>
      <point x="355" y="483" type="qcurve"/>
      <point x="311" y="483" type="line"/>
      <point x="234" y="553" type="line"/>
      <point x="156" y="483" type="line"/>
      <point x="113" y="483" type="line"/>
      <point x="119" y="491"/>
      <point x="159" y="535"/>
      <point x="180" y="558" type="qcurve"/>
      <point x="205" y="585"/>
    </contour>
  </outline>
</glyph>
<glyph name="caron" format="1">
  <advance width="450"/>
  <unicode hex="02C7"/>
  <outline>
    <contour>
      <point x="234" y="483" type="qcurve"/>
      <point x="205" y="515"/>
      <point x="180" y="542" type="qcurve"/>
      <point x="159" y="565"/>
      <point x="119" y="609"/>
      <point x="113" y="617" type="qcurve"/>
      <point x="156" y="617" type="line"/>
      <point x="234" y="547" type="line"/>
      <point x="311" y="617" type="line"/>
      <point x="355" y="617" type="line"/>
      <point x="347" y="608"/>
      <point x="308" y="564"/>
      <point x="287" y="541" type="qcurve"/>
      <point x="262" y="514"/>
    </contour>
  </outline>
</glyph>
<glyph name="Etilde" format="1">
  <advance width="648"/>
  <unicode hex="1EBC"/>
  <outline>
    <contour>
      <point x="520" y="580" type="line"/>
      <point x="520" y="652" type="line"/>
      <point x="203" y="652" type="line"/>
      <point x="203" y="391" type="line"/>
      <point x="545" y="391" type="line"/>
      <point x="545" y="327" type="line"/>
      <point x="203" y="327" type="line"/>
      <point x="203" y="64" type="line"/>
      <point x="534" y="64" type="line"/>
      <point x="534" y="140" type="line"/>
      <point x="598" y="140" type="line"/>
      <point x="598" y="0" type="line"/>
      <point x="57" y="0" type="line"/>
      <point x="57" y="60" type="line"/>
      <point x="135" y="60" type="line"/>
      <point x="135" y="654" type="line"/>
      <point x="57" y="654" type="line"/>
      <point x="57" y="714" type="line"/>
      <point x="584" y="714" type="line"/>
      <point x="584" y="580" type="line"/>
    </contour>
    <contour>
      <point x="361" y="793" type="qcurve"/>
      <point x="345" y="810"/>
      <point x="322" y="821"/>
      <point x="308" y="821" type="qcurve"/>
      <point x="300" y="821"/>
      <point x="282" y="817"/>
      <point x="264" y="806"/>
      <point x="251" y="786"/>
      <point x="249" y="771" type="qcurve"/>
      <point x="216" y="773" type="line"/>
      <point x="217" y="793"/>
      <point x="234" y="823"/>
      <point x="259" y="844"/>
      <point x="289" y="854"/>
      <point x="304" y="854" type="qcurve"/>
      <point x="327" y="854"/>
      <point x="363" y="836"/>
      <point x="379" y="819" type="qcurve"/>
      <point x="395" y="802"/>
      <point x="418" y="791"/>
      <point x="432" y="791" type="qcurve"/>
      <point x="439" y="791"/>
      <point x="458" y="795"/>
      <point x="476" y="806"/>
      <point x="489" y="826"/>
      <point x="491" y="841" type="qcurve"/>
      <point x="524" y="839" type="line"/>
      <point x="523" y="819"/>
      <point x="506" y="789"/>
      <point x="481" y="768"/>
      <point x="451" y="758"/>
      <point x="436" y="758" type="qcurve"/>
      <point x="413" y="758"/>
      <point x="377" y="777"/>
    </contour>
  </outline>
</glyph>
<glyph name="fl" format="1">
  <advance width="586"/>
  <unicode hex="FB02"/>
  <outline>
    <contour>
      <point x="34" y="351" type="line"/>
      <point x="34" y="400" type="line"/>
      <point x="102" y="400" type="line"/>
      <point x="102" y="517" type="line"/>
      <point x="102" y="578"/>
      <point x="133" y="670"/>
      <point x="189" y="732"/>
      <point x="268" y="764"/>
      <point x="316" y="766" type="qcurve"/>
      <point x="491" y="766" type="line"/>
      <point x="491" y="48" type="line"/>
      <point x="564" y="48" type="line"/>
      <point x="564" y="0" type="line"/>
      <point x="368" y="0" type="line"/>
      <point x="368" y="48" type="line"/>
      <point x="436" y="48" type="line"/>
      <point x="436" y="717" type="line"/>
      <point x="316" y="717" type="line"/>
      <point x="242" y="715"/>
      <point x="158" y="607"/>
      <point x="158" y="517" type="qcurve"/>
      <point x="158" y="400" type="line"/>
      <point x="288" y="400" type="line"/>
      <point x="288" y="351" type="line"/>
      <point x="158" y="351" type="line"/>
      <point x="158" y="48" type="line"/>
      <point x="258" y="48" type="line"/>
      <point x="258" y="0" type="line"/>
      <point x="34" y="0" type="line"/>
      <point x="34" y="48" type="line"/>
      <point x="102" y="48" type="line"/>
      <point x="102" y="351" type="line"/>
    </contour>
  </outline>
</glyph>
